<svg aria-hidden="true" style="position: absolute; width: 0; height: 0; overflow: hidden;" version="1.1" xmlns="http://www.w3.org/2000/svg" xmlns:xlink="http://www.w3.org/1999/xlink">
<defs>
<symbol id="ico-nac" viewBox="0 0 40 32">
<path d="M19.38 0.006c-0.001 0-0.003 0-0.005 0-1.954 0-3.748 0.683-5.157 1.824l0.015-0.012c-1.413 1.143-2.42 2.736-2.805 4.56l-0.009 0.052-0.144 0.72c-0.022 0.086-0.034 0.185-0.034 0.287 0 0.422 0.215 0.793 0.542 1.010l0.004 0.003c0.196 0.132 0.437 0.21 0.697 0.21 0.615 0 1.127-0.44 1.238-1.023l0.001-0.008 0.148-0.714c0.296-1.387 1.078-2.554 2.156-3.341l0.016-0.011c0.923-0.675 2.081-1.080 3.333-1.080 1.642 0 3.122 0.697 4.16 1.81l0.003 0.003c0.936 1.014 1.456 2.334 1.46 3.706-0.003 1.534-0.633 2.919-1.647 3.915l-0.001 0.001c-1.023 1.004-2.425 1.624-3.973 1.624-0.002 0-0.003 0-0.005 0h-18.122c-0.001 0-0.001 0-0.002 0-0.343 0-0.655 0.137-0.882 0.36l0-0c-0.225 0.221-0.365 0.529-0.365 0.87s0.14 0.649 0.365 0.87l0 0c0.227 0.223 0.538 0.361 0.882 0.362h18.126c2.199-0.052 4.176-0.963 5.616-2.41l0-0c1.426-1.433 2.309-3.408 2.312-5.589v-0.001c-0.003-2.181-0.884-4.155-2.308-5.588l0 0c-1.44-1.447-3.416-2.359-5.606-2.412l-0.010-0zM33.75 11.082c-0.002 0-0.004 0-0.007 0-1.719 0-3.277 0.689-4.414 1.805l0.001-0.001c-1.128 1.107-1.827 2.646-1.83 4.35v0c0 0.328 0.132 0.64 0.366 0.872 0.227 0.224 0.54 0.362 0.884 0.362s0.657-0.138 0.884-0.362l-0 0c0.226-0.222 0.366-0.53 0.366-0.871 0-0 0-0.001 0-0.001v0c0-0.73 0.22-1.444 0.632-2.050 0.412-0.608 0.998-1.080 1.682-1.36 0.424-0.177 0.916-0.28 1.433-0.28 1.033 0 1.971 0.412 2.656 1.081l-0.001-0.001c0.678 0.662 1.099 1.585 1.099 2.607 0 0.512-0.106 0.999-0.296 1.441l0.009-0.024c-0.296 0.688-0.77 1.252-1.366 1.647l-0.014 0.009c-0.618 0.406-1.342 0.622-2.084 0.622h-32.5c-0.001 0-0.001 0-0.002 0-0.343 0-0.655 0.137-0.882 0.36l0-0c-0.226 0.222-0.366 0.53-0.366 0.871s0.14 0.649 0.366 0.871l0 0c0.227 0.223 0.538 0.36 0.882 0.36 0.001 0 0.002 0 0.002 0h24.376c0.828 0.002 1.622 0.328 2.206 0.906 0.586 0.58 0.914 1.36 0.912 2.178-0.002 0.816-0.332 1.598-0.92 2.174-0.573 0.555-1.355 0.897-2.218 0.897-0.776 0-1.487-0.277-2.040-0.737l0.005 0.004c-0.554-0.461-0.942-1.105-1.073-1.837l-0.003-0.019-0.014-0.074c-0.047-0.342-0.231-0.634-0.492-0.824l-0.004-0.002c-0.204-0.149-0.461-0.239-0.738-0.239-0.596 0-1.096 0.414-1.226 0.97l-0.002 0.009c-0.016 0.075-0.026 0.161-0.026 0.249 0 0.085 0.009 0.167 0.025 0.247l-0.001-0.008 0.012 0.074c0.222 1.3 0.904 2.48 1.926 3.33 0.982 0.821 2.259 1.32 3.652 1.32 1.552 0 2.959-0.619 3.989-1.623l-0.001 0.001c1.056-1.040 1.652-2.448 1.654-3.92 0-1.14-0.35-2.196-0.948-3.076h3.448c0.003 0 0.007 0 0.011 0 1.717 0 3.274-0.687 4.41-1.801l-0.001 0.001c1.172-1.156 1.83-2.72 1.83-4.354 0-1.632-0.66-3.196-1.83-4.35-1.136-1.115-2.694-1.804-4.413-1.804-0.002 0-0.005 0-0.007 0h0z"></path>
<path d="M19.38 0.006l0.248-9.996-0.128-0.004h-0.12l0.002 10zM11.42 6.43l-9.8-1.994-0.002 0.018 9.802 1.976zM11.276 7.15l9.724 2.33 0.040-0.176 0.038-0.178-9.802-1.976zM13.724 7.63l-9.794-2.014-0.038 0.186-0.030 0.184 9.862 1.648zM13.872 6.916l-9.792-2.018 9.794 2.018zM25 8.004h10v-0.026l-10 0.028zM19.374 13.544v10h0.006l-0.004-10zM0 14.776v0zM19.376 16.006v10h0.12l0.12-0.004-0.24-9.996zM30 17.236v0zM0 22.16v0zM25.626 23.39l0.020-10h-0.020v10zM25.612 29.544l0.020-10h-0.026l0.006 10zM22.496 26.956l-9.86 1.668 0.002 0.016 0.004 0.018 9.854-1.702zM22.482 26.882l-9.906 1.362 0.020 0.154 0.026 0.152 9.86-1.67zM20.018 27.284l9.86-1.668-0.026-0.15-0.030-0.148-9.804 1.966zM20.030 27.358l-9.86 1.67 0.004 0.016 9.856-1.686zM25.612 32.006l0.004-10h-0.006l0.002 10zM31.25 26.466l10 0.020v-0.020h-10zM30.302 23.39v-10h-18.892l10.624 15.624 8.268-5.624zM19.38-9.994c-0.001 0-0.002 0-0.002 0-4.341 0-8.327 1.52-11.455 4.057l0.034-0.027 12.56 15.564c-0.306 0.252-0.702 0.405-1.134 0.406h-0l-0.002-20zM7.954-5.964c-3.181 2.578-5.45 6.172-6.313 10.283l-0.021 0.117 19.6 3.988c-0.1 0.49-0.364 0.9-0.706 1.176l-12.56-15.564zM1.618 4.454l-0.146 0.718 19.608 3.954 0.144-0.718-19.604-3.954zM1.55 4.818c-0.196 0.784-0.308 1.684-0.308 2.611 0 0.68 0.060 1.345 0.176 1.991l-0.010-0.068 19.704-3.424c0.206 1.18 0.166 2.388-0.112 3.552l-19.45-4.662zM1.408 9.352c0.282 1.591 0.862 3.007 1.682 4.25l-0.026-0.042 16.752-10.926c0.622 0.94 1.075 2.049 1.288 3.241l0.008 0.053-19.704 3.424zM3.064 13.56c0.839 1.274 1.888 2.336 3.109 3.165l0.039 0.025 11.152-16.604c0.981 0.665 1.798 1.493 2.432 2.453l0.020 0.033-16.752 10.928zM6.212 16.75c1.17 0.796 2.547 1.387 4.030 1.688l0.072 0.012 3.866-19.622c1.208 0.243 2.277 0.702 3.217 1.34l-0.031-0.020-11.152 16.6zM10.314 18.45c1.46 0.288 2.966 0.284 4.426-0.014l-3.99-19.598c0.523-0.111 1.123-0.175 1.739-0.175 0.598 0 1.181 0.060 1.745 0.174l-0.056-0.010-3.864 19.622zM14.74 18.436c1.553-0.322 2.926-0.922 4.13-1.751l-0.038 0.025-11.26-16.53c0.905-0.624 1.972-1.090 3.121-1.33l0.057-0.010 3.99 19.594zM18.832 16.71c1.253-0.861 2.296-1.931 3.102-3.169l0.026-0.043-16.824-10.816c0.649-0.998 1.461-1.831 2.408-2.483l0.030-0.019 11.26 16.53zM21.96 13.498c0.786-1.206 1.356-2.627 1.619-4.153l0.009-0.067-19.726-3.292c0.213-1.246 0.659-2.357 1.295-3.334l-0.021 0.034 16.824 10.814zM23.52 9.648l0.148-0.716-19.59-4.034-0.148 0.716 19.59 4.034zM23.666 8.936c-0.235 1.124-0.864 2.071-1.734 2.711l-0.012 0.009-11.754-16.18c-3.068 2.244-5.262 5.525-6.070 9.318l-0.018 0.102 19.588 4.040zM21.92 11.656c-0.703 0.517-1.586 0.828-2.542 0.828-0.146 0-0.291-0.007-0.434-0.022l0.018 0.001 1.946-19.906c-0.459-0.048-0.991-0.075-1.53-0.075-3.462 0-6.662 1.122-9.257 3.022l0.044-0.031 11.754 16.18zM18.962 12.464c-1.104-0.113-2.070-0.624-2.769-1.385l-0.003-0.003 14.702-13.558c-2.533-2.737-6.014-4.563-9.918-4.955l-0.066-0.005-1.946 19.906zM16.19 11.076c-0.736-0.8-1.188-1.871-1.19-3.048v-0l20-0.050c-0.012-4.043-1.571-7.719-4.115-10.47l0.009 0.010-14.704 13.56zM15 8.006c0-1.234 0.5-2.384 1.336-3.208l14.034 14.248c2.857-2.811 4.627-6.719 4.63-11.040v-0h-20zM16.336 4.798c0.83-0.818 1.924-1.252 3.034-1.252l0.010 20c4.282-0 8.163-1.718 10.992-4.502l-0.002 0.002-14.036-14.25zM19.376 3.546h-18.128v20h18.126v-20zM1.25 3.546c-0 0-0 0-0 0-3.078 0-5.868 1.235-7.901 3.237l0.001-0.001 14.032 14.25c-1.576 1.554-3.742 2.513-6.132 2.514h-0v-20zM-6.65 6.782c-2.068 2.036-3.349 4.865-3.35 7.994v0h20c-0 2.447-1.002 4.661-2.617 6.253l-0.001 0.001-14.032-14.25zM-10 14.776c0 3.13 1.282 5.96 3.349 7.995l0.001 0.001 14.032-14.252c1.617 1.593 2.618 3.807 2.618 6.254 0 0.001 0 0.001 0 0.002v-0h-20zM-6.65 22.772c2.031 1.999 4.82 3.234 7.898 3.234 0.001 0 0.002 0 0.003 0h-0v-20c2.39 0.001 4.556 0.96 6.133 2.515l-0.001-0.001-14.032 14.252zM1.25 26.006h18.126v-20h-18.128v20zM19.616 26.002c4.888-0.118 9.28-2.147 12.477-5.365l0.001-0.001-14.204-14.080c0.317-0.327 0.755-0.534 1.241-0.55l0.003-0 0.482 20zM32.094 20.636c3.216-3.238 5.205-7.698 5.21-12.623v-0.001l-20-0.006c0-0.572 0.228-1.088 0.586-1.45l14.204 14.080zM37.304 8.012c-0.001-4.926-1.988-9.388-5.203-12.629l0.001 0.001-14.212 14.072c-0.362-0.371-0.586-0.879-0.586-1.439 0-0.004 0-0.008 0-0.011v0.001l20 0.006zM32.1-4.616c-3.196-3.221-7.586-5.252-12.451-5.374l-0.023-0-0.496 19.992c-0.488-0.016-0.925-0.222-1.242-0.546l-0-0 14.212-14.072zM33.748 1.084c-0.003 0-0.006 0-0.009 0-4.452 0-8.487 1.785-11.429 4.678l0.002-0.002 14.032 14.252c-0.666 0.661-1.583 1.070-2.596 1.072h-0v-20zM22.312 5.76c-2.97 2.922-4.81 6.984-4.812 11.476v0h20c0 1.072-0.434 2.066-1.154 2.774l-14.032-14.25zM17.5 17.236c0 3.030 1.224 5.902 3.35 7.996l14.032-14.25c1.616 1.593 2.618 3.807 2.618 6.254v0h-20zM20.85 25.232c2.031 2.001 4.821 3.236 7.9 3.236 0 0 0 0 0 0h-0v-20c2.39 0.001 4.556 0.96 6.133 2.515l-0.001-0.001-14.032 14.25zM28.75 28.468c0 0 0 0 0 0 3.078 0 5.868-1.235 7.901-3.237l-0.001 0.001-14.032-14.25c1.576-1.554 3.742-2.513 6.132-2.514h0v20zM36.65 25.232c2.068-2.036 3.349-4.867 3.35-7.996v-0h-20c0-2.447 1.002-4.661 2.617-6.253l0.001-0.001 14.032 14.25zM40 17.236c0 1.284-0.388 2.524-1.094 3.564l-16.546-11.23c-1.476 2.148-2.359 4.804-2.36 7.666v0h20zM38.906 20.8c-0.704 1.040-1.69 1.826-2.814 2.286l-7.554-18.52c-2.556 1.059-4.657 2.783-6.15 4.957l-0.030 0.047 16.548 11.23zM36.092 23.086c-0.692 0.29-1.495 0.458-2.338 0.458-0.422 0-0.835-0.042-1.234-0.123l0.040 0.007 3.844-19.626c-0.798-0.164-1.715-0.258-2.654-0.258-1.879 0-3.67 0.375-5.303 1.055l0.091-0.034 7.554 18.52zM32.56 23.428c-1.248-0.251-2.33-0.844-3.175-1.677l0.001 0.001 14.032-14.252c-1.866-1.838-4.256-3.148-6.926-3.685l-0.088-0.015-3.844 19.628zM29.386 21.752c-0.886-0.872-1.506-2.002-1.76-3.256l19.604-3.96c-0.575-2.778-1.924-5.178-3.81-7.034l-0.002-0.002-14.032 14.252zM27.626 18.496c-0.080-0.379-0.126-0.815-0.126-1.261 0-0.889 0.183-1.736 0.512-2.504l-0.016 0.041 18.436 7.756c0.675-1.562 1.068-3.381 1.068-5.291 0-0.956-0.098-1.889-0.285-2.789l0.015 0.088-19.604 3.96zM27.996 14.772c0.5-1.171 1.305-2.131 2.317-2.806l0.023-0.014 10.994 16.708c2.255-1.497 4.011-3.584 5.068-6.043l0.034-0.089-18.436-7.756zM30.336 11.952c0.961-0.64 2.142-1.022 3.412-1.022 0.001 0 0.001 0 0.002 0h-0v20c0.001 0 0.002 0 0.003 0 2.821 0 5.443-0.847 7.628-2.3l-0.051 0.032-10.992-16.71zM33.75 10.93h-32.5v20h32.5v-20zM1.25 10.93c-0.001 0-0.002 0-0.002 0-3.077 0-5.867 1.235-7.899 3.235l0.001-0.001 14.032 14.252c-1.576 1.552-3.741 2.51-6.13 2.51-0.001 0-0.002 0-0.002 0h0v-20zM-6.65 14.164c-2.068 2.036-3.35 4.866-3.35 7.996v0h20c0 0 0 0.001 0 0.002 0 2.447-1.001 4.661-2.617 6.253l-0.001 0.001-14.032-14.252zM-10 22.16c0 3.13 1.282 5.96 3.349 7.995l0.001 0.001 14.032-14.252c1.617 1.593 2.618 3.807 2.618 6.254 0 0.001 0 0.001 0 0.002v-0h-20zM-6.65 30.156c2.031 1.999 4.82 3.234 7.898 3.234 0.001 0 0.002 0 0.003 0h-0v-20c2.39 0.001 4.556 0.961 6.133 2.517l-0.001-0.001-14.032 14.252zM1.25 33.39h24.376v-20h-24.378v20zM25.606 33.39c-1.874-0.004-3.57-0.76-4.805-1.983l0.001 0.001 14.060-14.224c-2.369-2.34-5.624-3.788-9.217-3.794h-0.001l-0.040 20zM20.802 31.408c-1.272-1.26-2.060-3.007-2.060-4.938 0-0.006 0-0.011 0-0.017v0.001l20 0.040c0-0.007 0-0.015 0-0.023 0-3.633-1.484-6.919-3.879-9.286l-0.001-0.001-14.060 14.224zM18.742 26.454c0.003-1.937 0.798-3.687 2.079-4.945l0.001-0.001 14.004 14.28c2.412-2.364 3.91-5.653 3.918-9.292v-0.002l-20-0.040zM20.822 21.508c1.235-1.214 2.931-1.964 4.801-1.964 0.003 0 0.006 0 0.009 0h-0l-0.040 20c0.010 0 0.021 0 0.032 0 3.584 0 6.832-1.433 9.204-3.758l-0.002 0.002-14.004-14.28zM25.606 19.544c1.572 0 3.118 0.546 4.356 1.574l-12.78 15.386c2.267 1.892 5.211 3.040 8.423 3.040 0.005 0 0.010 0 0.015 0h-0.001l-0.014-20zM29.962 21.118c1.23 1.029 2.091 2.462 2.38 4.092l0.006 0.042-19.706 3.406c0.563 3.175 2.202 5.895 4.519 7.829l0.021 0.017 12.78-15.386zM32.354 25.286l-0.012-0.074-19.72 3.338 0.014 0.074 19.72-3.338zM32.39 25.518c-0.225-1.597-0.755-3.034-1.53-4.305l0.028 0.049-17.136 10.314c-0.585-0.956-1-2.082-1.171-3.285l-0.005-0.047 19.814-2.726zM30.888 21.262c-0.797-1.309-1.806-2.405-2.992-3.274l-0.032-0.022-11.756 16.18c-0.949-0.695-1.735-1.55-2.334-2.531l-0.022-0.039 17.136-10.314zM27.864 17.966c-1.144-0.839-2.493-1.478-3.953-1.832l-0.077-0.016-4.598 19.464c-1.193-0.288-2.24-0.784-3.152-1.453l0.024 0.017 11.756-16.18zM23.834 16.118c-0.778-0.192-1.672-0.302-2.591-0.302-0.643 0-1.273 0.054-1.887 0.157l0.066-0.009 3.232 19.736c-0.423 0.073-0.911 0.114-1.409 0.114-0.713 0-1.406-0.085-2.069-0.247l0.060 0.012 4.598-19.462zM19.42 15.964c-1.561 0.261-2.955 0.808-4.188 1.587l0.046-0.027 10.59 16.966c-0.921 0.584-2.004 1.008-3.165 1.203l-0.051 0.007-3.23-19.734zM15.278 17.524c-1.291 0.814-2.37 1.838-3.221 3.035l-0.023 0.035 16.36 11.504c-0.68 0.964-1.54 1.776-2.526 2.392l-10.588-16.966zM12.034 20.594c-0.835 1.174-1.46 2.56-1.786 4.058l-0.014 0.074 19.568 4.14c-0.266 1.229-0.755 2.314-1.426 3.259l0.018-0.027-16.36-11.504zM10.234 24.726c-0.154 0.698-0.243 1.499-0.243 2.321 0 0.78 0.080 1.542 0.231 2.277l-0.012-0.073 19.61-3.934c0.109 0.518 0.171 1.114 0.171 1.724 0 0.645-0.070 1.274-0.201 1.88l0.011-0.058-19.562-4.138zM10.154 28.954l0.014 0.074 19.72-3.34-0.012-0.072-19.72 3.338zM10.172 29.044c0.663 3.775 2.608 7.009 5.359 9.31l0.025 0.020 12.798-15.37c0.79 0.658 1.348 1.598 1.53 2.668l-19.71 3.374zM15.556 38.374c2.702 2.26 6.214 3.632 10.047 3.632 0.004 0 0.008 0 0.012 0h-0.001l-0.004-20c0.984 0 1.958 0.34 2.746 0.998l-12.798 15.37zM25.608 42.006c0.004 0 0.009 0 0.014 0 4.278 0 8.155-1.713 10.984-4.49l-0.002 0.002-14.016-14.266c0.778-0.768 1.846-1.243 3.026-1.246h0l-0.008 20zM36.604 37.518c2.86-2.808 4.636-6.712 4.646-11.030v-0.002l-20-0.036c0.002-1.23 0.5-2.378 1.336-3.2l14.018 14.268zM41.25 26.468c0-3.22-0.996-6.226-2.678-8.7l-16.54 11.246c-0.489-0.714-0.781-1.596-0.782-2.546v-0h20zM30.302 33.39h3.448v-20h-3.448v20zM33.75 33.39c0.003 0 0.006 0 0.009 0 4.452 0 8.487-1.785 11.429-4.678l-0.002 0.002-14.032-14.252c0.666-0.661 1.583-1.070 2.596-1.072h0v20zM45.186 28.714c2.971-2.922 4.812-6.985 4.814-11.478v-0h-20c0-1.070 0.434-2.064 1.154-2.774l14.032 14.252zM50 17.236c0-4.334-1.75-8.46-4.814-11.476l-14.032 14.25c-0.713-0.706-1.154-1.685-1.154-2.767 0-0.003 0-0.005 0-0.008v0h20zM45.186 5.76c-2.94-2.892-6.976-4.678-11.429-4.678-0.002 0-0.005 0-0.008 0h0v20c-1.013-0.002-1.93-0.411-2.596-1.072l0 0 14.032-14.25z"></path>
</symbol>
<symbol id="icon-AC" viewBox="0 0 32 32">
<path d="M14.411 3.282c-2.717.477-4.777 2.511-5.318 5.251-.05.248-.078.576-.066.73.056.675.781 1.066 1.415.76.336-.163.475-.411.634-1.122.229-1.034.584-1.719 1.227-2.372.859-.874 2.004-1.333 3.273-1.319h.043a4.1 4.1 0 0 1 1.927.478l-.022-.011c1.716.835 2.727 2.769 2.407 4.603-.306 1.754-1.445 3.018-3.218 3.575l-.469.147-15.584.053-.216.144a.983.983 0 0 0 .1 1.689l.005.003.237.115 15.565-.03.626-.17c2.684-.727 4.574-2.922 4.846-5.631a6.195 6.195 0 0 0-.63-3.358l.016.036c-.884-1.789-2.516-3.094-4.476-3.516l-.043-.008c-.552-.12-1.722-.144-2.277-.046zm11.967 8.812c-2.079.282-3.77 1.788-4.244 3.777-.142.602-.16 1.323-.037 1.554a1.034 1.034 0 0 0 1.484.364l-.004.002c.274-.19.408-.488.45-.999.061-.722.293-1.25.781-1.77.552-.592 1.179-.899 1.97-.968 1.394-.12 2.769.848 3.117 2.197.394 1.527-.479 3.047-2.05 3.573-.282.094-.85.101-13.735.126-12.614.024-13.454.032-13.612.118-.643.352-.656 1.269-.024 1.698l.194.13 10.188.027c7.272.019 10.236.045 10.349.086.685.253 1.237.714 1.511 1.258.751 1.496-.178 3.265-1.853 3.524-1.314.203-2.543-.661-2.847-2.004-.098-.432-.288-.704-.592-.842-.653-.298-1.419.166-1.419.859 0 .546.328 1.442.759 2.071.576.842 1.568 1.522 2.629 1.802.568.15 1.724.138 2.293-.026 2.749-.784 4.102-3.738 2.852-6.232l-.245-.49 1.736-.021c1.669-.021 1.759-.027 2.255-.16a5.034 5.034 0 0 0 3.537-3.404l.009-.035c.13-.426.144-.547.144-1.322 0-.778-.014-.896-.147-1.335a5.02 5.02 0 0 0-3.934-3.516l-.03-.004a5.972 5.972 0 0 0-1.509-.039l.025-.002z"/>
</symbol>
<symbol id="icon-airConditioner" viewBox="0 0 32 32">
<path d="M14.411 3.282c-2.717.477-4.777 2.511-5.318 5.251-.05.248-.078.576-.066.73.056.675.781 1.066 1.415.76.336-.163.475-.411.634-1.122.229-1.034.584-1.719 1.227-2.372.859-.874 2.004-1.333 3.273-1.319h.043a4.1 4.1 0 0 1 1.927.478l-.022-.011c1.716.835 2.727 2.769 2.407 4.603-.306 1.754-1.445 3.018-3.218 3.575l-.469.147-15.584.053-.216.144a.983.983 0 0 0 .1 1.689l.005.003.237.115 15.565-.03.626-.17c2.684-.727 4.574-2.922 4.846-5.631a6.195 6.195 0 0 0-.63-3.358l.016.036c-.884-1.789-2.516-3.094-4.476-3.516l-.043-.008c-.552-.12-1.722-.144-2.277-.046zm11.967 8.812c-2.079.282-3.77 1.788-4.244 3.777-.142.602-.16 1.323-.037 1.554a1.034 1.034 0 0 0 1.484.364l-.004.002c.274-.19.408-.488.45-.999.061-.722.293-1.25.781-1.77.552-.592 1.179-.899 1.97-.968 1.394-.12 2.769.848 3.117 2.197.394 1.527-.479 3.047-2.05 3.573-.282.094-.85.101-13.735.126-12.614.024-13.454.032-13.612.118-.643.352-.656 1.269-.024 1.698l.194.13 10.188.027c7.272.019 10.236.045 10.349.086.685.253 1.237.714 1.511 1.258.751 1.496-.178 3.265-1.853 3.524-1.314.203-2.543-.661-2.847-2.004-.098-.432-.288-.704-.592-.842-.653-.298-1.419.166-1.419.859 0 .546.328 1.442.759 2.071.576.842 1.568 1.522 2.629 1.802.568.15 1.724.138 2.293-.026 2.749-.784 4.102-3.738 2.852-6.232l-.245-.49 1.736-.021c1.669-.021 1.759-.027 2.255-.16a5.034 5.034 0 0 0 3.537-3.404l.009-.035c.13-.426.144-.547.144-1.322 0-.778-.014-.896-.147-1.335a5.02 5.02 0 0 0-3.934-3.516l-.03-.004a5.972 5.972 0 0 0-1.509-.039l.025-.002z"/>
</symbol>
<symbol id="icon-alcove" viewBox="0 0 46 32">
<path d="M2.608 1.802h12.409c0 0 0.001 0 0.001 0 0.108 0 0.206-0.043 0.277-0.113l-0 0 1.192-1.161c0.332-0.325 0.788-0.526 1.29-0.526 0.003 0 0.005 0 0.007 0h18.817c0.004-0 0.008-0 0.012-0 0.894 0 1.683 0.446 2.158 1.127l0.006 0.009 2.255 3.301c0.32 0.469 0.35 1.067 0.078 1.563-0.273 0.483-0.783 0.805-1.368 0.805-0.003 0-0.006 0-0.009-0h-9.698v0.957h4.967c0.006-0 0.014-0 0.021-0 1.328 0 2.472 0.789 2.988 1.925l0.008 0.021 2.909 6.649 2.549 0.994c1.36 0.531 2.239 1.798 2.239 3.227v6.158c0 0.919-0.766 1.666-1.707 1.666h-2.965c-0.344 2.038-2.162 3.599-4.35 3.599s-4.007-1.561-4.35-3.6h-16.203c-0.345 2.040-2.165 3.6-4.351 3.6-2.185 0-4.005-1.561-4.35-3.6h-5.92c-0.839 0-1.519-0.663-1.519-1.479v-22.578c0-1.403 1.169-2.544 2.608-2.544zM36.693 30.596c1.637 0 2.969-1.299 2.969-2.897 0-1.597-1.333-2.896-2.969-2.896-1.638 0-2.969 1.299-2.969 2.896 0 1.598 1.331 2.897 2.969 2.897zM30.034 26.996h2.307l0.019-0.104 0.014-0.071c0.011-0.055 0.025-0.11 0.039-0.165l0.009-0.034c0.017-0.065 0.035-0.129 0.057-0.194 0.005-0.018 0.011-0.037 0.018-0.056 0.034-0.102 0.059-0.171 0.086-0.238l-0.011 0.032 0.047-0.114 0.034-0.075 0.049-0.109 0.038-0.075 0.055-0.103 0.040-0.074 0.059-0.101 0.043-0.071 0.066-0.101 0.045-0.065c0.025-0.035 0.050-0.071 0.078-0.105l0.040-0.055c0.089-0.113 0.173-0.212 0.261-0.308l-0.003 0.004 0.042-0.043 0.096-0.099 0.057-0.053c0.075-0.072 0.153-0.142 0.234-0.209l0.007-0.005 0.066-0.051c0.042-0.034 0.094-0.074 0.148-0.113l0.013-0.009 0.097-0.067 0.069-0.046c0.034-0.023 0.069-0.043 0.104-0.065l0.069-0.041c0.038-0.023 0.077-0.043 0.115-0.065l0.059-0.034c0.025-0.015 0.081-0.043 0.137-0.069l0.032-0.014 0.013-0.006c0.062-0.030 0.123-0.057 0.186-0.082 0.019-0.009 0.041-0.016 0.061-0.024l0.13-0.050 0.074-0.026c0.139-0.050 0.314-0.099 0.493-0.138l0.030-0.006 0.087-0.018c0.087-0.018 0.201-0.036 0.317-0.049l0.019-0.002 0.082-0.009 0.143-0.011c0.023 0 0.047-0.003 0.071-0.003 0.065-0.004 0.14-0.006 0.216-0.006s0.151 0.002 0.226 0.006l-0.010-0c0.023 0 0.046 0.002 0.071 0.005 0.047 0.002 0.095 0.006 0.143 0.011 0.027 0.001 0.055 0.006 0.082 0.008 0.164 0.018 0.308 0.042 0.449 0.074l-0.026-0.005c0.208 0.044 0.383 0.093 0.554 0.153l-0.030-0.009 0.074 0.026 0.13 0.050 0.061 0.023c0.063 0.026 0.126 0.054 0.186 0.083l0.013 0.006c0.057 0.027 0.113 0.055 0.168 0.085l0.059 0.033c0.040 0.021 0.079 0.042 0.117 0.065l0.069 0.041 0.103 0.065 0.070 0.046 0.097 0.069c0.064 0.045 0.116 0.085 0.167 0.126l-0.006-0.005 0.066 0.051c0.089 0.075 0.167 0.145 0.244 0.218l-0.003-0.003 0.057 0.053 0.096 0.099 0.042 0.043c0.046 0.048 0.089 0.098 0.131 0.149l0.017 0.021c0.037 0.045 0.073 0.088 0.109 0.135l0.040 0.055 0.078 0.105 0.045 0.065 0.066 0.101 0.043 0.071 0.058 0.101 0.041 0.074 0.055 0.103 0.038 0.075c0.017 0.037 0.034 0.072 0.049 0.109l0.034 0.074c0.020 0.043 0.045 0.105 0.068 0.168l0.006 0.020 0.047 0.134 0.019 0.057c0.019 0.064 0.039 0.128 0.057 0.194l0.008 0.034c0.014 0.054 0.026 0.109 0.038 0.163l0.015 0.071 0.019 0.104h2.963c0.001 0 0.002 0 0.003 0 0.144 0 0.261-0.116 0.263-0.259v-2.946h-1.125v-1.406h1.125v-1.806c0-0.851-0.523-1.606-1.334-1.922l-2.697-1.051h-10.208v9.391zM30.034 16.198h9.257l-2.598-5.939c-0.294-0.648-0.936-1.090-1.68-1.090-0.004 0-0.009 0-0.013 0h-4.966v7.030zM11.789 30.596c1.638 0 2.969-1.299 2.969-2.897 0-1.597-1.331-2.896-2.969-2.896-0.051 0-0.102 0.001-0.152 0.005-1.365 0.067-2.488 1.038-2.757 2.309-0.027 0.126-0.047 0.274-0.056 0.426l-0 0.008c-0.002 0.040-0.003 0.086-0.003 0.133 0 0.005 0 0.011 0 0.016v-0.001c0 1.598 1.331 2.897 2.968 2.897zM1.441 22.384h1.125v1.406h-1.126v3.131c0 0.041 0.034 0.074 0.077 0.074h5.92l0.021-0.103c0.005-0.024 0.008-0.049 0.014-0.073 0.011-0.054 0.023-0.107 0.038-0.16l0.009-0.038c0.017-0.065 0.037-0.129 0.057-0.194l0.019-0.057 0.046-0.133 0.029-0.072c0.041-0.106 0.068-0.169 0.096-0.231l-0.016 0.040 0.049-0.106c0.011-0.026 0.025-0.051 0.039-0.077l0.053-0.103 0.042-0.074c0.081-0.139 0.151-0.249 0.225-0.356l-0.013 0.019 0.077-0.104 0.042-0.057c0.034-0.045 0.069-0.088 0.106-0.131l0.018-0.023c0.043-0.050 0.087-0.101 0.131-0.149l0.043-0.046 0.096-0.097 0.057-0.054 0.088-0.083 0.063-0.054 0.090-0.075 0.066-0.054c0.039-0.032 0.092-0.071 0.144-0.11l0.016-0.011c0.032-0.023 0.064-0.046 0.097-0.066l0.069-0.047 0.103-0.065 0.069-0.041 0.117-0.065 0.061-0.034c0.055-0.029 0.111-0.056 0.167-0.082 0.005-0.002 0.009-0.006 0.015-0.007 0.061-0.030 0.123-0.057 0.185-0.082l0.191-0.074 0.075-0.026c0.012-0.005 0.052-0.019 0.092-0.031l0.028-0.008c0.101-0.033 0.236-0.069 0.374-0.099l0.030-0.005 0.086-0.019c0.087-0.018 0.201-0.036 0.317-0.049l0.019-0.002 0.082-0.009 0.144-0.011c0.023 0 0.046-0.003 0.070-0.003 0.065-0.004 0.14-0.006 0.216-0.006s0.151 0.002 0.226 0.006l-0.010-0c0.024 0 0.047 0.002 0.071 0.005 0.048 0.002 0.096 0.006 0.143 0.011 0.027 0.001 0.055 0.006 0.082 0.008 0.093 0.010 0.166 0.021 0.239 0.033l-0.024-0.003 0.121 0.021 0.087 0.018c0.138 0.029 0.246 0.056 0.352 0.088l-0.031-0.008 0.082 0.025c0.040 0.011 0.080 0.025 0.119 0.039l0.075 0.026 0.13 0.050 0.061 0.023c0.153 0.064 0.274 0.122 0.391 0.186l-0.024-0.012 0.061 0.033 0.117 0.065 0.069 0.041 0.103 0.065 0.070 0.046 0.096 0.069c0.062 0.043 0.114 0.083 0.165 0.124l-0.005-0.004 0.067 0.054c0.031 0.024 0.061 0.050 0.090 0.075l0.062 0.054 0.146 0.137 0.096 0.098 0.042 0.046c0.085 0.092 0.169 0.191 0.249 0.293l0.008 0.010 0.041 0.055c0.026 0.034 0.053 0.070 0.077 0.105l0.045 0.066c0.051 0.073 0.107 0.161 0.159 0.252l0.010 0.019 0.041 0.074 0.054 0.103 0.038 0.075 0.050 0.109 0.033 0.074c0.017 0.039 0.032 0.078 0.047 0.117l0.027 0.071c0.017 0.045 0.032 0.089 0.047 0.135l0.019 0.055c0.021 0.064 0.039 0.13 0.057 0.194l0.007 0.032c0.015 0.055 0.027 0.111 0.040 0.167l0.013 0.069 0.022 0.106h12.453v-20.891c0-0.389 0.322-0.704 0.72-0.704h10.419c0.017 0 0.072 0 0.106-0.063 0.010-0.016 0.016-0.035 0.016-0.055 0-0.025-0.008-0.047-0.023-0.065l0 0-2.254-3.299c-0.216-0.31-0.571-0.511-0.972-0.511-0.002 0-0.003 0-0.005 0h-18.817c-0 0-0.001 0-0.001 0-0.108 0-0.206 0.043-0.277 0.113l0-0-1.192 1.162c-0.332 0.324-0.787 0.525-1.289 0.525-0.003 0-0.006 0-0.009-0h-12.408c-0.004-0-0.008-0-0.013-0-0.632 0-1.145 0.508-1.154 1.137v18.040z"></path>
<path d="M20.115 7.199h4.559c0.92 0 1.67 0.731 1.67 1.63v15.046c0 0.389-0.322 0.703-0.72 0.703h-6.457c-0.002 0-0.005 0-0.008 0-0.39 0-0.707-0.314-0.712-0.702v-15.046c0-0.899 0.747-1.63 1.669-1.63zM19.887 23.171h5.016v-8.266h-5.017v8.266zM19.887 13.499h5.016v-4.671c-0.001-0.124-0.102-0.224-0.226-0.224-0.001 0-0.002 0-0.002 0h-4.56c-0.126 0-0.229 0.101-0.229 0.224l0.001 4.669z"></path>
</symbol>
<symbol id="icon-shower" viewBox="0 0 32 32">
<path d="M5.201 4.346c-.029.01-.117.033-.196.05-.186.041-.452.268-.561.478-.112.215-.113.705-.002.914.047.088.722.794 1.499 1.57l1.414 1.41-.175.243c-.658.915-1.149 2.153-1.315 3.314-.084.589-.037 2.064.083 2.609.201.918.631 1.938 1.123 2.665l.235.349-.74.746c-.407.411-.771.807-.808.88-.088.173-.088.683.001.854.101.195.273.372.455.467.208.108.701.107.907-.002.088-.047 3.225-3.153 6.971-6.903 4.929-4.933 6.823-6.862 6.853-6.978.189-.728-.235-1.324-.942-1.324-.162 0-.354.03-.427.068s-.469.401-.88.808l-.746.74-.349-.235c-.727-.492-1.747-.922-2.665-1.123-.545-.12-2.02-.167-2.609-.083-1.161.166-2.399.657-3.314 1.315l-.243.175-1.41-1.414c-.776-.777-1.47-1.445-1.544-1.484-.14-.074-.523-.143-.613-.111zm9.118 3.521c.233.041.593.13.8.198.412.133 1.319.577 1.346.659.024.073-7.695 7.778-7.755 7.741-.078-.048-.527-.984-.651-1.357-.421-1.26-.331-2.824.23-4.04 1.066-2.308 3.573-3.639 6.03-3.201zm6.884 4.479c-.029.01-.117.033-.196.05-.186.041-.452.268-.561.478-.111.213-.113.704-.003.914.166.318.551.56.893.56s.728-.242.894-.56c.101-.194.11-.697.015-.881a1.13 1.13 0 0 0-.424-.448l-.005-.003c-.141-.073-.524-.142-.613-.11zm5.333 1.334a1.71 1.71 0 0 1-.181.048l-.015.003c-.185.04-.452.267-.561.477-.111.214-.112.705-.003.914.166.318.552.56.894.56s.727-.242.893-.56c.102-.194.11-.697.016-.88a1.14 1.14 0 0 0-.424-.449l-.005-.003c-.142-.073-.525-.141-.614-.11zm-9.334 2.667c-.029.01-.117.033-.196.05-.186.041-.452.268-.561.478-.111.213-.113.704-.003.914.166.318.551.56.893.56s.728-.242.894-.56c.101-.194.11-.697.015-.881a1.13 1.13 0 0 0-.424-.448l-.005-.003c-.141-.073-.524-.142-.613-.11zm5.334 1.333a1.71 1.71 0 0 1-.181.048l-.015.003c-.185.04-.452.267-.561.477-.111.214-.112.705-.003.914.166.318.552.56.894.56s.727-.242.893-.56c.102-.194.11-.697.016-.88a1.14 1.14 0 0 0-.424-.449l-.005-.003c-.142-.073-.525-.141-.614-.11zm-9.334 2.667c-.029.01-.117.033-.196.05-.186.041-.452.268-.561.478-.111.213-.113.704-.003.914.166.318.551.56.893.56s.728-.242.894-.56c.101-.194.11-.697.015-.881a1.13 1.13 0 0 0-.424-.448l-.005-.003c-.141-.073-.524-.142-.613-.11zm5.333 1.334a1.71 1.71 0 0 1-.181.048l-.015.003c-.185.04-.452.267-.561.477-.111.214-.112.705-.003.914.166.318.552.56.894.56s.727-.242.893-.56c.102-.194.11-.697.016-.88a1.14 1.14 0 0 0-.424-.449l-.005-.003c-.142-.073-.525-.141-.614-.11zm-4 4a1.71 1.71 0 0 1-.181.048l-.015.003c-.185.04-.452.267-.561.477-.111.214-.112.705-.003.914.166.318.552.56.894.56s.727-.242.893-.56c.102-.194.11-.697.016-.88a1.14 1.14 0 0 0-.424-.449l-.005-.003c-.142-.073-.525-.141-.614-.11z"/>
</symbol>
<symbol id="icon-bathroom" viewBox="0 0 32 32">
<path d="M5.201 4.346c-.029.01-.117.033-.196.05-.186.041-.452.268-.561.478-.112.215-.113.705-.002.914.047.088.722.794 1.499 1.57l1.414 1.41-.175.243c-.658.915-1.149 2.153-1.315 3.314-.084.589-.037 2.064.083 2.609.201.918.631 1.938 1.123 2.665l.235.349-.74.746c-.407.411-.771.807-.808.88-.088.173-.088.683.001.854.101.195.273.372.455.467.208.108.701.107.907-.002.088-.047 3.225-3.153 6.971-6.903 4.929-4.933 6.823-6.862 6.853-6.978.189-.728-.235-1.324-.942-1.324-.162 0-.354.03-.427.068s-.469.401-.88.808l-.746.74-.349-.235c-.727-.492-1.747-.922-2.665-1.123-.545-.12-2.02-.167-2.609-.083-1.161.166-2.399.657-3.314 1.315l-.243.175-1.41-1.414c-.776-.777-1.47-1.445-1.544-1.484-.14-.074-.523-.143-.613-.111zm9.118 3.521c.233.041.593.13.8.198.412.133 1.319.577 1.346.659.024.073-7.695 7.778-7.755 7.741-.078-.048-.527-.984-.651-1.357-.421-1.26-.331-2.824.23-4.04 1.066-2.308 3.573-3.639 6.03-3.201zm6.884 4.479c-.029.01-.117.033-.196.05-.186.041-.452.268-.561.478-.111.213-.113.704-.003.914.166.318.551.56.893.56s.728-.242.894-.56c.101-.194.11-.697.015-.881a1.13 1.13 0 0 0-.424-.448l-.005-.003c-.141-.073-.524-.142-.613-.11zm5.333 1.334a1.71 1.71 0 0 1-.181.048l-.015.003c-.185.04-.452.267-.561.477-.111.214-.112.705-.003.914.166.318.552.56.894.56s.727-.242.893-.56c.102-.194.11-.697.016-.88a1.14 1.14 0 0 0-.424-.449l-.005-.003c-.142-.073-.525-.141-.614-.11zm-9.334 2.667c-.029.01-.117.033-.196.05-.186.041-.452.268-.561.478-.111.213-.113.704-.003.914.166.318.551.56.893.56s.728-.242.894-.56c.101-.194.11-.697.015-.881a1.13 1.13 0 0 0-.424-.448l-.005-.003c-.141-.073-.524-.142-.613-.11zm5.334 1.333a1.71 1.71 0 0 1-.181.048l-.015.003c-.185.04-.452.267-.561.477-.111.214-.112.705-.003.914.166.318.552.56.894.56s.727-.242.893-.56c.102-.194.11-.697.016-.88a1.14 1.14 0 0 0-.424-.449l-.005-.003c-.142-.073-.525-.141-.614-.11zm-9.334 2.667c-.029.01-.117.033-.196.05-.186.041-.452.268-.561.478-.111.213-.113.704-.003.914.166.318.551.56.893.56s.728-.242.894-.56c.101-.194.11-.697.015-.881a1.13 1.13 0 0 0-.424-.448l-.005-.003c-.141-.073-.524-.142-.613-.11zm5.333 1.334a1.71 1.71 0 0 1-.181.048l-.015.003c-.185.04-.452.267-.561.477-.111.214-.112.705-.003.914.166.318.552.56.894.56s.727-.242.893-.56c.102-.194.11-.697.016-.88a1.14 1.14 0 0 0-.424-.449l-.005-.003c-.142-.073-.525-.141-.614-.11zm-4 4a1.71 1.71 0 0 1-.181.048l-.015.003c-.185.04-.452.267-.561.477-.111.214-.112.705-.003.914.166.318.552.56.894.56s.727-.242.893-.56c.102-.194.11-.697.016-.88a1.14 1.14 0 0 0-.424-.449l-.005-.003c-.142-.073-.525-.141-.614-.11z"/>
</symbol>
<symbol id="icon-beds" viewBox="0 0 32 32">
      <path d="M7.528 5.017c-1.167.306-2.215 1.36-2.514 2.532-.101.394-.106.592-.106 3.605v3.189l-.278.141c-.997.499-1.885 1.477-2.351 2.586-.381.906-.374.811-.397 5.171-.024 4.334-.035 4.172.317 4.532.243.25.445.336.784.339l.036.001c.295 0 .563-.115.762-.302l-.001.001c.222-.202.293-.41.328-.96.029-.464.048-.539.155-.627.118-.096.487-.099 11.74-.099s11.621.003 11.74.099c.107.088.126.163.155.627.035.55.106.759.328.96.227.206.485.304.797.301l.046.001a.967.967 0 0 0 .737-.339l.001-.001c.352-.36.341-.2.317-4.534-.024-4.356-.018-4.266-.397-5.169-.466-1.109-1.354-2.087-2.351-2.586l-.278-.141v-3.189c0-3.013-.005-3.212-.106-3.606-.302-1.183-1.352-2.232-2.535-2.535-.408-.104-.59-.106-8.477-.102-7.79.002-8.072.005-8.453.106zM24.07 7.246c.299.147.655.531.743.802.074.226.133 3.444.062 3.413a32.968 32.968 0 0 1-1.172-.545l.674.303a3.286 3.286 0 0 0-.781-.274l-.023-.004c-.557-.093-5.793-.078-6.244.018a3.379 3.379 0 0 0-1.135.503l.011-.007-.202.133-.254-.163a3.157 3.157 0 0 0-1.167-.483l-.02-.003c-.479-.077-5.667-.075-6.131.003a3.473 3.473 0 0 0-.823.287l.02-.009-.495.24c-.059.027-.048-2.868.014-3.197a1.43 1.43 0 0 1 1.014-1.089l.01-.002c.226-.054 1.836-.066 7.963-.059l7.681.01.253.125zm-9.694 5.976c.248.114.315.184.427.451l.082.197H8.111l.056-.147c.106-.228.28-.41.496-.522l.006-.003c.126-.056.715-.072 2.826-.072 2.468 0 2.684.006 2.881.096zm8.95-.026c.229.111.408.295.511.52l.003.007.056.147h-6.774l.082-.197c.112-.267.179-.338.427-.451.197-.09.416-.098 2.868-.098 2.14-.002 2.69.013 2.828.072zm2.202 2.972c.703.126 1.5.666 1.893 1.28.096.149.235.43.31.626l.139.357.016 2.226.018 2.228H4.107v-2.044c0-1.227.022-2.17.058-2.36.205-1.133 1.239-2.14 2.396-2.333.074-.013 4.3-.026 9.392-.03 6.404-.005 9.355.011 9.575.051z"/>
</symbol>
<symbol id="icon-calendar" viewBox="0 0 32 32">
<path stroke-linejoin="round" stroke-linecap="round" stroke-miterlimit="4" stroke-width="2.4" d="M25.333 5.333h-18.666c-1.472 0-2.667 1.195-2.667 2.667v18.667c0 1.472 1.194 2.666 2.667 2.666h18.666c1.472 0 2.667-1.194 2.667-2.666v-18.667c0-1.472-1.194-2.667-2.667-2.667zM21.333 2.667v5.333M10.667 2.667v5.333M4 13.333h24"></path>
</symbol>
<symbol id="icon-CD" viewBox="0 0 32 32">
<path d="M14.723 2.86c-1.77.213-3.034.578-4.508 1.298-1.447.709-2.344 1.354-3.524 2.533s-1.824 2.077-2.533 3.524a11.645 11.645 0 0 0-.939 2.505l-.018.083c-.296 1.189-.347 1.66-.347 3.201s.051 2.012.347 3.201c.23.928.496 1.645.957 2.588.709 1.447 1.354 2.344 2.533 3.524s2.077 1.824 3.524 2.533c.741.385 1.603.713 2.505.939l.083.018c1.189.296 1.66.347 3.201.347s2.012-.051 3.201-.347a13.666 13.666 0 0 0 4.913-2.388l-.033.024c.55-.414 1.943-1.807 2.357-2.357a13.463 13.463 0 0 0 2.602-6.002l.011-.079c.077-.464.098-.883.098-2 0-1.541-.051-2.012-.347-3.201a13.666 13.666 0 0 0-2.388-4.913l.024.033c-.414-.55-1.807-1.943-2.357-2.357-1.464-1.104-3.141-1.924-4.801-2.346-1.095-.28-1.621-.342-3.041-.362a27.312 27.312 0 0 0-1.562.004l.042-.001zm2.828 2.456c3.373.474 6.372 2.583 7.995 5.627a10.735 10.735 0 0 1 1.25 5.064c0 .996-.134 1.961-.385 2.878l.018-.076c-.906 3.311-3.277 5.98-6.42 7.224a10.75 10.75 0 0 1-4.019.765c-.926 0-1.825-.115-2.683-.331l.076.016a10.88 10.88 0 0 1-7.061-5.695l-.028-.063a10.111 10.111 0 0 1-1.076-4.574l.001-.155v.008l-.001-.105c0-2.203.679-4.248 1.838-5.936l-.023.036c1.961-2.907 5.242-4.794 8.963-4.794.549 0 1.088.041 1.615.12l-.059-.007zm-2.399 2.207a8.532 8.532 0 0 0-6.874 4.884l-.022.052c-.455.991-.647 1.759-.744 2.967l-.064.784.157.302c.095.188.226.345.386.467l.003.002c.214.155.264.168.671.168.4 0 .461-.014.666-.157.374-.259.493-.525.541-1.221.115-1.637.666-2.919 1.727-4.03 1.074-1.122 2.479-1.752 4.175-1.872.696-.048.962-.166 1.221-.541.142-.205.157-.266.157-.661s-.014-.458-.157-.663c-.235-.339-.547-.499-1.01-.515l-.14-.001c-.244 0-.485.012-.722.036l.03-.002zm.069 4.022c-1.781.339-3.127 1.579-3.599 3.311-.163.603-.165 1.685-.002 2.295a4.684 4.684 0 0 0 3.203 3.228l.033.008c.605.162 1.69.162 2.295 0a4.7 4.7 0 0 0 2.894-2.354l.012-.026c.338-.674.443-1.152.443-2.004 0-.566-.024-.811-.114-1.147-.414-1.547-1.711-2.841-3.236-3.231-.55-.139-1.427-.176-1.93-.08zm1.336 2.405c1.259.328 1.924 1.759 1.37 2.945a2.135 2.135 0 0 1-2.285 1.203l.012.002c-1.247-.214-2.055-1.488-1.7-2.682a2.143 2.143 0 0 1 2.602-1.467z"/>
</symbol>
<symbol id="icon-freezer" viewBox="0 0 32 32">
<path d="M7.974 2.028c-1.043.208-1.941 1.029-2.268 2.076-.106.338-.107.475-.107 11.069.002 11.541-.011 11.005.262 11.543.282.55.863 1.143 1.346 1.371.17.08.198.122.221.318.062.562.52 1.168 1.093 1.45.306.15.314.15 1.52.168 1.376.019 1.592-.018 2.039-.333a1.96 1.96 0 0 0 .728-.946l.115-.312h6.171l.035.146c.122.504.584 1.053 1.087 1.29.291.136.304.138 1.628.138s1.336-.002 1.628-.138c.558-.262.97-.784 1.095-1.381.058-.282.072-.299.376-.477.639-.371 1.162-1.043 1.391-1.792.094-.306.099-.783.099-10.988 0-8.864-.013-10.719-.074-10.962-.264-1.059-1.251-2.023-2.29-2.236-.334-.069-15.749-.074-16.094-.005zm16.002 2.206c.125.104.226.232.299.376l.003.007c.096.218.099.398.086 3.847l-.013 3.618H7.653V4.713l.147-.221c.093-.133.208-.242.342-.325l.005-.003c.197-.104.309-.106 7.912-.094l7.712.011.203.154zM9.895 5.595a.988.988 0 0 0-.527.545l-.002.007c-.07.168-.083.535-.083 2.423 0 2.167.003 2.232.114 2.461a.98.98 0 0 0 .876.545l.04-.001h-.002.027c.156 0 .305-.028.442-.08l-.009.003c.246-.151.434-.377.533-.646l.003-.009c.074-.27.075-4.345 0-4.614-.162-.584-.85-.893-1.411-.635zm14.457 14.332v5.766l-.144.216c-.097.138-.223.25-.37.327l-.006.003-.234.114h-7.587c-6.254 0-7.616-.013-7.758-.072a1.066 1.066 0 0 1-.564-.642l-.002-.008c-.064-.258-.086-11.396-.022-11.46.019-.019 3.783-.029 8.362-.021l8.326.013v5.764zm-14.294-5.518a1.03 1.03 0 0 0-.671.541l-.003.006c-.093.203-.101.386-.101 2.46 0 2.06.008 2.258.099 2.456.342.754 1.383.808 1.826.094l.126-.203v-4.641l-.141-.24a1.036 1.036 0 0 0-1.144-.472l.007-.002z"/>
</symbol>
<symbol id="icon-engine" viewBox="0 0 32 32">
<path d="M26.36 9.64l0.013-0.013-4.96-4.96-1.413 1.413 2.813 2.813c-1.266 0.488-2.148 1.695-2.148 3.109 0 0.92 0.374 1.753 0.979 2.355l0 0c0.603 0.602 1.436 0.975 2.355 0.975 0.483 0 0.941-0.103 1.356-0.287l-0.021 0.008v9.614c0 0.736-0.597 1.333-1.333 1.333s-1.333-0.597-1.333-1.333v0-6c0-0 0-0.001 0-0.002 0-1.472-1.193-2.666-2.666-2.666-0.001 0-0.001 0-0.002 0h-1.333v-9.333c0-1.473-1.194-2.667-2.667-2.667v0h-8c-1.473 0-2.667 1.194-2.667 2.667v0 21.333h13.334v-10h2v6.667c0 1.841 1.492 3.333 3.333 3.333s3.333-1.492 3.333-3.333v0-12.667c0-0.92-0.373-1.76-0.973-2.36zM16 18v7.333h-8v-9.333h8v2zM16 13.333h-8v-6.666h8v6.666zM24 13.333c-0.736 0-1.333-0.597-1.333-1.333s0.597-1.333 1.333-1.333v0c0.736 0 1.333 0.597 1.333 1.333s-0.597 1.333-1.333 1.333v0z"></path>
</symbol>
<symbol id="icon-fullyIntegrated" viewBox="0 0 46 32">
<path d="M2.608 1.802h12.409c0 0 0.001 0 0.001 0 0.108 0 0.206-0.043 0.277-0.113l-0 0 1.192-1.161c0.332-0.325 0.788-0.526 1.29-0.526 0.003 0 0.005 0 0.007 0h18.817c0.004-0 0.008-0 0.012-0 0.894 0 1.683 0.446 2.158 1.127l0.006 0.009 2.255 3.301c0.32 0.469 0.35 1.067 0.078 1.563-0.273 0.483-0.783 0.805-1.368 0.805-0.003 0-0.006 0-0.009-0h-9.698v0.957h4.967c0.006-0 0.014-0 0.021-0 1.328 0 2.472 0.789 2.988 1.925l0.008 0.021 2.909 6.649 2.549 0.994c1.36 0.531 2.239 1.798 2.239 3.227v6.158c0 0.919-0.766 1.666-1.707 1.666h-2.965c-0.344 2.038-2.162 3.599-4.35 3.599s-4.007-1.561-4.35-3.6h-16.203c-0.345 2.040-2.165 3.6-4.351 3.6-2.185 0-4.005-1.561-4.35-3.6h-5.92c-0.839 0-1.519-0.663-1.519-1.479v-22.578c0-1.403 1.169-2.544 2.608-2.544zM36.693 30.596c1.637 0 2.969-1.299 2.969-2.897 0-1.597-1.333-2.896-2.969-2.896-1.638 0-2.969 1.299-2.969 2.896 0 1.598 1.331 2.897 2.969 2.897zM30.034 26.996h2.307l0.019-0.104 0.014-0.071c0.011-0.055 0.025-0.11 0.039-0.165l0.009-0.034c0.017-0.065 0.035-0.129 0.057-0.194 0.005-0.018 0.011-0.037 0.018-0.056 0.034-0.102 0.059-0.171 0.086-0.238l-0.011 0.032 0.047-0.114 0.034-0.075 0.049-0.109 0.038-0.075 0.055-0.103 0.040-0.074 0.059-0.101 0.043-0.071 0.066-0.101 0.045-0.065c0.025-0.035 0.050-0.071 0.078-0.105l0.040-0.055c0.089-0.113 0.173-0.212 0.261-0.308l-0.003 0.004 0.042-0.043 0.096-0.099 0.057-0.053c0.075-0.072 0.153-0.142 0.234-0.209l0.007-0.005 0.066-0.051c0.042-0.034 0.094-0.074 0.148-0.113l0.013-0.009 0.097-0.067 0.069-0.046c0.034-0.023 0.069-0.043 0.104-0.065l0.069-0.041c0.038-0.023 0.077-0.043 0.115-0.065l0.059-0.034c0.025-0.015 0.081-0.043 0.137-0.069l0.032-0.014 0.013-0.006c0.062-0.030 0.123-0.057 0.186-0.082 0.019-0.009 0.041-0.016 0.061-0.024l0.13-0.050 0.074-0.026c0.139-0.050 0.314-0.099 0.493-0.138l0.030-0.006 0.087-0.018c0.087-0.018 0.201-0.036 0.317-0.049l0.019-0.002 0.082-0.009 0.143-0.011c0.023 0 0.047-0.003 0.071-0.003 0.065-0.004 0.14-0.006 0.216-0.006s0.151 0.002 0.226 0.006l-0.010-0c0.023 0 0.046 0.002 0.071 0.005 0.047 0.002 0.095 0.006 0.143 0.011 0.027 0.001 0.055 0.006 0.082 0.008 0.164 0.018 0.308 0.042 0.449 0.074l-0.026-0.005c0.208 0.044 0.383 0.093 0.554 0.153l-0.030-0.009 0.074 0.026 0.13 0.050 0.061 0.023c0.063 0.026 0.126 0.054 0.186 0.083l0.013 0.006c0.057 0.027 0.113 0.055 0.168 0.085l0.059 0.033c0.040 0.021 0.079 0.042 0.117 0.065l0.069 0.041 0.103 0.065 0.070 0.046 0.097 0.069c0.064 0.045 0.116 0.085 0.167 0.126l-0.006-0.005 0.066 0.051c0.089 0.075 0.167 0.145 0.244 0.218l-0.003-0.003 0.057 0.053 0.096 0.099 0.042 0.043c0.046 0.048 0.089 0.098 0.131 0.149l0.017 0.021c0.037 0.045 0.073 0.088 0.109 0.135l0.040 0.055 0.078 0.105 0.045 0.065 0.066 0.101 0.043 0.071 0.058 0.101 0.041 0.074 0.055 0.103 0.038 0.075c0.017 0.037 0.034 0.072 0.049 0.109l0.034 0.074c0.020 0.043 0.045 0.105 0.068 0.168l0.006 0.020 0.047 0.134 0.019 0.057c0.019 0.064 0.039 0.128 0.057 0.194l0.008 0.034c0.014 0.054 0.026 0.109 0.038 0.163l0.015 0.071 0.019 0.104h2.963c0.001 0 0.002 0 0.003 0 0.144 0 0.261-0.116 0.263-0.259v-2.946h-1.125v-1.406h1.125v-1.806c0-0.851-0.523-1.606-1.334-1.922l-2.697-1.051h-10.208v9.391zM30.034 16.198h9.257l-2.598-5.939c-0.294-0.648-0.936-1.090-1.68-1.090-0.004 0-0.009 0-0.013 0h-4.966v7.030zM11.789 30.596c1.638 0 2.969-1.299 2.969-2.897 0-1.597-1.331-2.896-2.969-2.896-0.051 0-0.102 0.001-0.152 0.005-1.365 0.067-2.488 1.038-2.757 2.309-0.027 0.126-0.047 0.274-0.056 0.426l-0 0.008c-0.002 0.040-0.003 0.086-0.003 0.133 0 0.005 0 0.011 0 0.016v-0.001c0 1.598 1.331 2.897 2.968 2.897zM1.441 22.384h1.125v1.406h-1.126v3.131c0 0.041 0.034 0.074 0.077 0.074h5.92l0.021-0.103c0.005-0.024 0.008-0.049 0.014-0.073 0.011-0.054 0.023-0.107 0.038-0.16l0.009-0.038c0.017-0.065 0.037-0.129 0.057-0.194l0.019-0.057 0.046-0.133 0.029-0.072c0.041-0.106 0.068-0.169 0.096-0.231l-0.016 0.040 0.049-0.106c0.011-0.026 0.025-0.051 0.039-0.077l0.053-0.103 0.042-0.074c0.081-0.139 0.151-0.249 0.225-0.356l-0.013 0.019 0.077-0.104 0.042-0.057c0.034-0.045 0.069-0.088 0.106-0.131l0.018-0.023c0.043-0.050 0.087-0.101 0.131-0.149l0.043-0.046 0.096-0.097 0.057-0.054 0.088-0.083 0.063-0.054 0.090-0.075 0.066-0.054c0.039-0.032 0.092-0.071 0.144-0.11l0.016-0.011c0.032-0.023 0.064-0.046 0.097-0.066l0.069-0.047 0.103-0.065 0.069-0.041 0.117-0.065 0.061-0.034c0.055-0.029 0.111-0.056 0.167-0.082 0.005-0.002 0.009-0.006 0.015-0.007 0.061-0.030 0.123-0.057 0.185-0.082l0.191-0.074 0.075-0.026c0.012-0.005 0.052-0.019 0.092-0.031l0.028-0.008c0.101-0.033 0.236-0.069 0.374-0.099l0.030-0.005 0.086-0.019c0.087-0.018 0.201-0.036 0.317-0.049l0.019-0.002 0.082-0.009 0.144-0.011c0.023 0 0.046-0.003 0.070-0.003 0.065-0.004 0.14-0.006 0.216-0.006s0.151 0.002 0.226 0.006l-0.010-0c0.024 0 0.047 0.002 0.071 0.005 0.048 0.002 0.096 0.006 0.143 0.011 0.027 0.001 0.055 0.006 0.082 0.008 0.093 0.010 0.166 0.021 0.239 0.033l-0.024-0.003 0.121 0.021 0.087 0.018c0.138 0.029 0.246 0.056 0.352 0.088l-0.031-0.008 0.082 0.025c0.040 0.011 0.080 0.025 0.119 0.039l0.075 0.026 0.13 0.050 0.061 0.023c0.153 0.064 0.274 0.122 0.391 0.186l-0.024-0.012 0.061 0.033 0.117 0.065 0.069 0.041 0.103 0.065 0.070 0.046 0.096 0.069c0.062 0.043 0.114 0.083 0.165 0.124l-0.005-0.004 0.067 0.054c0.031 0.024 0.061 0.050 0.090 0.075l0.062 0.054 0.146 0.137 0.096 0.098 0.042 0.046c0.085 0.092 0.169 0.191 0.249 0.293l0.008 0.010 0.041 0.055c0.026 0.034 0.053 0.070 0.077 0.105l0.045 0.066c0.051 0.073 0.107 0.161 0.159 0.252l0.010 0.019 0.041 0.074 0.054 0.103 0.038 0.075 0.050 0.109 0.033 0.074c0.017 0.039 0.032 0.078 0.047 0.117l0.027 0.071c0.017 0.045 0.032 0.089 0.047 0.135l0.019 0.055c0.021 0.064 0.039 0.13 0.057 0.194l0.007 0.032c0.015 0.055 0.027 0.111 0.040 0.167l0.013 0.069 0.022 0.106h12.453v-20.891c0-0.389 0.322-0.704 0.72-0.704h10.419c0.017 0 0.072 0 0.106-0.063 0.010-0.016 0.016-0.035 0.016-0.055 0-0.025-0.008-0.047-0.023-0.065l0 0-2.254-3.299c-0.216-0.31-0.571-0.511-0.972-0.511-0.002 0-0.003 0-0.005 0h-18.817c-0 0-0.001 0-0.001 0-0.108 0-0.206 0.043-0.277 0.113l0-0-1.192 1.162c-0.332 0.324-0.787 0.525-1.289 0.525-0.003 0-0.006 0-0.009-0h-12.408c-0.004-0-0.008-0-0.013-0-0.632 0-1.145 0.508-1.154 1.137v18.040z"></path>
<path d="M20.115 7.199h4.559c0.92 0 1.67 0.731 1.67 1.63v15.046c0 0.389-0.322 0.703-0.72 0.703h-6.457c-0.002 0-0.005 0-0.008 0-0.39 0-0.707-0.314-0.712-0.702v-15.046c0-0.899 0.747-1.63 1.669-1.63zM19.887 23.171h5.016v-8.266h-5.017v8.266zM19.887 13.499h5.016v-4.671c-0.001-0.124-0.102-0.224-0.226-0.224-0.001 0-0.002 0-0.002 0h-4.56c-0.126 0-0.229 0.101-0.229 0.224v4.669h0.001zM5.536 7.199h8.814c1.019 0 1.848 0.809 1.848 1.802v4.101c0 0.994-0.83 1.802-1.848 1.802h-8.815c-1.018 0-1.847-0.808-1.847-1.802v-4.101c0-0.994 0.829-1.802 1.848-1.802zM5.129 13.102c0 0.217 0.183 0.397 0.407 0.397h8.814c0.001 0 0.003 0 0.005 0 0.22 0 0.399-0.177 0.402-0.396v-4.101c0-0.218-0.183-0.397-0.407-0.397h-8.815c-0.001 0-0.002 0-0.003 0-0.22 0-0.399 0.177-0.402 0.396v4.101z"></path>
</symbol>
<symbol id="icon-gas" viewBox="0 0 32 32">
<path d="M25.072 13.992c-0.368-0.454-0.816-0.848-1.232-1.24-1.072-0.906-2.288-1.557-3.312-2.509-2.384-2.206-2.912-5.848-1.392-8.643-1.52 0.347-2.848 1.133-3.982 1.995-4.144 3.142-5.776 8.688-3.824 13.448 0.064 0.152 0.128 0.304 0.128 0.499 0 0.333-0.24 0.635-0.56 0.755-0.368 0.152-0.752 0.061-1.056-0.181-0.090-0.070-0.165-0.155-0.222-0.252l-0.002-0.004c-1.808-2.162-2.096-5.259-0.88-7.738-2.67 2.054-4.126 5.531-3.918 8.81 0.096 0.755 0.192 1.512 0.464 2.267 0.224 0.906 0.656 1.813 1.136 2.614 1.728 2.614 4.72 4.488 7.936 4.864 3.422 0.41 7.085-0.179 9.709-2.416 2.928-2.509 3.952-6.528 2.448-9.974l-0.208-0.392c-0.336-0.696-1.232-1.904-1.232-1.904zM20.016 23.512c-0.448 0.362-1.184 0.755-1.76 0.906-1.792 0.605-3.582-0.24-4.638-1.238 1.904-0.422 3.040-1.752 3.376-3.098 0.272-1.21-0.24-2.206-0.448-3.37-0.192-1.12-0.16-2.070 0.272-3.114 0.304 0.574 0.624 1.149 1.008 1.602 1.232 1.512 3.168 2.176 3.584 4.232 0.064 0.211 0.096 0.422 0.096 0.65 0.048 1.238-0.528 2.598-1.488 3.43z"></path>
</symbol>
<symbol id="icon-heart" viewBox="0 0 32 32">
<path d="M8.96 2.488a8.613 8.613 0 0 0-3.673 1.008l.046-.023C2.794 4.784 1.085 7.18.634 10.053c-.087.549-.087 2.011 0 2.56a9.023 9.023 0 0 0 1.747 4.129l-.016-.022c.4.537 12.481 12.651 12.86 12.896.252.161.292.171.775.171s.523-.009.775-.171c.379-.245 12.46-12.359 12.86-12.896a8.944 8.944 0 0 0 1.724-4.056l.006-.051c.037-.235.067-.811.067-1.28 0-.881-.057-1.397-.239-2.133-.855-3.479-3.791-6.131-7.353-6.641-.619-.088-1.997-.079-2.588.02-1.883.311-3.471 1.103-4.812 2.401l-.44.425-.44-.425c-1.769-1.712-4.184-2.624-6.6-2.492zm1.92 3.243c1.207.335 1.821.733 3.173 2.057.557.545 1.109 1.051 1.227 1.121.187.115.277.131.72.131.441 0 .533-.016.72-.129.117-.071.657-.565 1.2-1.097 1.053-1.035 1.441-1.341 2.115-1.675.911-.449 1.759-.62 2.845-.575 1.765.073 3.283.879 4.385 2.329.335.439.745 1.279.915 1.869a6.022 6.022 0 0 1-.011 3.185l.01-.042a6.86 6.86 0 0 1-.942 1.916l.014-.022c-.153.205-2.748 2.845-5.765 5.867l-5.485 5.493-5.485-5.493c-3.017-3.021-5.612-5.661-5.765-5.867a6.633 6.633 0 0 1-.521-.867l-.018-.039c-1.108-2.277-.664-4.907 1.128-6.687a5.79 5.79 0 0 1 2.702-1.512l.04-.008c.5-.125.588-.132 1.467-.113.693.015.908.04 1.333.157z"/>
</symbol>
<symbol id="icon-heart-favor" viewBox="0 0 32 32">
<path d="M8.08 2.587a8.845 8.845 0 0 0-5.038 2.617l-.003.003C1.402 6.91.579 8.96.579 11.334c0 1.975.543 3.648 1.705 5.253.373.515 12.744 12.917 13.049 13.083.307.167 1.028.167 1.333 0 .304-.164 12.615-12.507 13.023-13.056 1.171-1.573 1.732-3.287 1.732-5.28 0-1.437-.292-2.719-.901-3.947-.873-1.761-2.5-3.323-4.28-4.108a8.298 8.298 0 0 0-3.522-.772l-.124.001h.006-.091a8.605 8.605 0 0 0-4.546 1.29L18 3.777c-.463.276-.889.605-1.479 1.144l-.519.473-.585-.531c-1.395-1.267-2.871-1.979-4.711-2.273-.624-.1-2.008-.101-2.627-.003z"/>
</symbol>
<symbol id="icon-hob" viewBox="0 0 32 32">
<path fill="none" stroke="#101828" style="stroke: var(--color2, #101828)" stroke-linejoin="miter" stroke-linecap="butt" stroke-miterlimit="4" stroke-width="2.4" d="M12 6.667h16c0.354 0 0.693 0.14 0.943 0.391s0.391 0.589 0.391 0.943v17.333c0 0.354-0.14 0.693-0.391 0.943s-0.589 0.391-0.943 0.391h-16M12 6.667h-8c-0.354 0-0.693 0.14-0.943 0.391s-0.39 0.589-0.39 0.943v17.333c0 0.354 0.14 0.693 0.39 0.943s0.589 0.391 0.943 0.391h8M12 6.667v20"></path>
<path fill="none" stroke="#101828" style="stroke: var(--color2, #101828)" stroke-linejoin="round" stroke-linecap="round" stroke-miterlimit="4" stroke-width="2.4" d="M7.333 11.333v2.667M24.667 10.667l-8 11.333"></path>
<path d="M8.667 18c0-0.736-0.597-1.333-1.333-1.333s-1.333 0.597-1.333 1.333c0 0.736 0.597 1.333 1.333 1.333s1.333-0.597 1.333-1.333z"></path>
<path d="M8.667 22c0-0.736-0.597-1.333-1.333-1.333s-1.333 0.597-1.333 1.333c0 0.736 0.597 1.333 1.333 1.333s1.333-0.597 1.333-1.333z"></path>
</symbol>
<symbol id="icon-kitchen" viewBox="0 0 32 32">
<path d="M24.832 2.927c-.275.126-1.941 1.826-2.703 2.759-2.421 2.964-3.724 5.667-4.306 8.93-.208 1.171-.28 2.068-.31 3.846-.032 1.904-.021 1.997.264 2.324.336.382.173.363 3.428.392l2.933.027v1.6l-.269.034a1.101 1.101 0 0 0-.728.348l-.001.001c-.307.323-.309.342-.309 2.829.002 2.108.01 2.3.101 2.496.069.137.153.255.252.357.293.274.466.309 1.5.309 1.047-.002 1.231-.045 1.519-.352.334-.357.31.645.309-12.834-.002-11.844-.005-12.292-.101-12.498a1.214 1.214 0 0 0-1.585-.564l.008-.003zM6.161 4.26a1.254 1.254 0 0 0-.612.678l-.003.009c-.042.139-.053.979-.038 2.762.022 2.828.018 2.789.398 3.692.575 1.362 1.935 2.557 3.322 2.921l.24.062.026 7.011c.03 7.733.002 7.139.355 7.475a1.229 1.229 0 0 0 1.639-.001l-.001.001c.354-.336.326.258.355-7.475l.027-7.011.24-.062c1.386-.363 2.746-1.559 3.321-2.921.381-.903.378-.864.4-3.692.014-1.783.002-2.623-.04-2.762a1.247 1.247 0 0 0-.606-.683l-.007-.003a1.275 1.275 0 0 0-1.328.211l.002-.001c-.336.32-.325.235-.358 2.919-.035 2.693-.038 2.721-.381 3.324-.254.45-.987 1.13-1.215 1.13-.037 0-.054-1.122-.054-3.389 0-2.943-.011-3.415-.083-3.586-.392-.941-1.788-.941-2.181 0-.072.171-.083.643-.083 3.586 0 2.268-.018 3.389-.054 3.389-.227 0-.959-.68-1.215-1.13-.344-.607-.347-.631-.381-3.324-.032-2.684-.022-2.599-.358-2.919a1.27 1.27 0 0 0-1.333-.207l.008-.003zm17.98 14.504c-.021.051-.496.067-2.132.067-1.159 0-2.114-.019-2.125-.04-.035-.072.059-2.047.12-2.546.197-1.595.472-2.764.941-3.996.618-1.623 1.615-3.306 2.845-4.804l.347-.424.014 5.838c.008 3.212.002 5.868-.011 5.905z"/>
</symbol>
 <symbol id="icon-pin" viewBox="0 0 32 32">
<path d="m14.992.173-.624.072c-3.319.381-6.521 2.17-8.669 4.844a13.082 13.082 0 0 0-2.885 8.223c0 .767.066 1.519.192 2.249l-.011-.078c.775 4.62 4.196 9.607 9.765 14.235 1.159.963 2.434 1.912 2.781 2.069a1.277 1.277 0 0 0 .927-.003l-.009.003c.347-.157 1.619-1.104 2.783-2.069 2.876-2.389 5.262-4.966 6.912-7.465 2.46-3.724 3.41-7.264 2.901-10.802a13.185 13.185 0 0 0-7.146-9.905l-.076-.034A12.454 12.454 0 0 0 17.867.268L17.8.26c-.456-.069-2.439-.13-2.809-.086zm2.151 2.423a10.857 10.857 0 0 1 9.08 7.271l.023.076c1.162 3.497.493 7.046-2.06 10.941-1.477 2.256-3.886 4.852-6.505 7.013-.855.706-1.618 1.293-1.68 1.293s-.826-.587-1.68-1.293a37.224 37.224 0 0 1-2.806-2.566l-.004-.004c-3.566-3.562-5.673-7.118-6.19-10.444-.461-2.954.434-6.104 2.412-8.488 1.724-2.079 4.351-3.49 7.069-3.798a15.731 15.731 0 0 1 2.396.002l-.053-.003zm-2.087 5.636c-1.951.355-3.556 1.847-4.082 3.796-.115.429-.13.562-.13 1.295-.002.68.014.883.101 1.224a5.257 5.257 0 0 0 3.819 3.848l.036.008c.589.149 1.812.149 2.4 0a5.257 5.257 0 0 0 3.848-3.819l.008-.036c.086-.341.102-.544.101-1.224 0-.733-.014-.866-.13-1.295-.53-1.964-2.14-3.452-4.108-3.796a6.872 6.872 0 0 0-1.899.004l.036-.004zm1.592 2.386c.382.08.888.347 1.208.637.618.56.928 1.248.928 2.06 0 .837-.242 1.427-.816 2-.571.568-1.17.816-1.968.816s-1.397-.248-1.968-.816c-.575-.573-.816-1.163-.816-2 0-.797.307-1.493.898-2.032.703-.642 1.563-.867 2.535-.664z"/>
</symbol>
<symbol id="icon-microwave" viewBox="0 0 32 32">
<path d="M1.879 4.643c-.762.11-1.506.776-1.757 1.572-.098.314-.098 19.265 0 19.578.259.821.989 1.458 1.805 1.575.454.066 27.698.066 28.153 0 .816-.117 1.546-.754 1.805-1.575.098-.314.098-19.265 0-19.578-.259-.821-.989-1.458-1.805-1.575-.413-.061-27.791-.058-28.201.003zm27.86 11.36v9.149H2.268l-.014-9.096c-.008-5.003-.002-9.125.011-9.162.021-.053 2.799-.064 13.75-.053l13.724.013v9.149zM6.358 9.232c-.837.166-1.573.955-1.719 1.842-.069.419-.069 9.439 0 9.858.15.915.888 1.684 1.773 1.847.19.035 2.613.05 6.929.04l6.635-.014.386-.181a2.273 2.273 0 0 0 1.299-1.757c.059-.464.059-9.263 0-9.727a2.28 2.28 0 0 0-1.286-1.751l-.014-.006-.386-.181-6.694-.008c-3.682-.005-6.798.013-6.925.038zm18.634 1.095a3.036 3.036 0 0 1-.193.045l-.036.006c-.171.037-.547.392-.634.595-.168.403-.05.994.258 1.28.253.237.469.282 1.325.282.877 0 1.072-.045 1.351-.309.232-.221.32-.432.325-.784l.001-.045a1.06 1.06 0 0 0-.535-.922l-.005-.003c-.234-.136-.29-.146-.999-.158a9.301 9.301 0 0 0-.884.015l.026-.001zm-5.521 5.676v4.588H6.829v-9.176h12.642v4.588zm5.183-.982c-.426.214-.57.463-.57.983 0 .526.146.773.581.986.286.141.31.144 1.146.126.85-.019.851-.019 1.083-.181a1.121 1.121 0 0 0 .004-1.86l-.004-.003-.232-.162-.863-.018c-.845-.016-.867-.013-1.146.128z"/>
</symbol>
<symbol id="icon-radio" viewBox="0 0 32 32">
<path d="M13.95 4.366 8.189 7.079l-.555.062c-1.904.214-3.109.709-4.102 1.68-1.027 1.008-1.504 2.197-1.76 4.402-.08.677-.091 1.394-.091 5.447s.011 4.769.091 5.446c.254 2.183.704 3.325 1.716 4.358 1.008 1.027 2.197 1.504 4.402 1.76.698.082 1.549.091 8.114.091s7.416-.01 8.114-.091c2.205-.256 3.394-.733 4.402-1.76 1.011-1.032 1.461-2.175 1.716-4.358.08-.677.091-1.392.091-5.446s-.011-4.771-.091-5.447c-.256-2.205-.733-3.394-1.76-4.402-1.018-.997-2.16-1.453-4.278-1.709-.576-.069-1.586-.088-5.759-.109-2.839-.013-5.041-.043-5.014-.069.026-.026 1.65-.802 3.61-1.725 1.96-.922 3.612-1.722 3.673-1.776.192-.196.31-.464.31-.76v-.006c0-.599-.419-1.013-1.024-1.011-.261 0-.719.205-6.043 2.711zm7.867 4.701c1.768.053 2.421.11 3.201.277 1.786.384 2.604 1.208 2.983 3.007.182.859.211 1.258.278 3.852a79.576 79.576 0 0 1 0 4.934 72.215 72.215 0 0 1-.125 3.095l.01-.201c-.12 1.011-.397 1.964-.725 2.493-.571.927-1.65 1.437-3.461 1.64-.912.102-3.676.155-7.974.155s-7.062-.053-7.974-.155c-2.58-.29-3.626-1.138-4.05-3.281-.154-.773-.186-1.253-.253-3.748a77.787 77.787 0 0 1 .004-5.06l-.003.126c.037-1.357.09-2.66.117-2.893.267-2.25.954-3.281 2.532-3.806.799-.266 1.744-.381 3.575-.434 1.981-.056 9.999-.059 11.868-.003zM8.445 11.069C7.19 11.341 6 12.546 5.731 13.814c-.096.45-.094 1.264.002 1.72.27 1.275 1.467 2.469 2.746 2.74.525.11 14.536.112 15.049.002 1.283-.277 2.476-1.466 2.746-2.741a5.184 5.184 0 0 0-.005-1.761l.005.031c-.27-1.275-1.466-2.468-2.746-2.74-.509-.107-14.587-.104-15.083.005zm14.867 2.113a1.623 1.623 0 0 1 .01 2.97l-.01.004c-.282.131-.334.138-1.28.139l-.987.002-.027-.671c-.024-.603-.04-.691-.16-.867-.158-.234-.579-.463-.853-.463s-.695.229-.853.463c-.12.176-.136.264-.16.867l-.027.671H8.99l-.294-.139c-1.055-.501-1.307-1.828-.501-2.626.228-.234.526-.399.861-.459l.01-.001c.134-.024 3.329-.038 7.099-.035l6.854.008.294.139zm-13.95 6.511c-.355.067-.954.362-1.269.626-.763.635-1.104 1.362-1.104 2.352 0 .775.195 1.354.635 1.882 1.272 1.532 3.487 1.536 4.748.008.256-.309.506-.816.584-1.186.082-.382.075-1.152-.013-1.479-.414-1.549-1.973-2.509-3.582-2.204zm7.521 2.054a.982.982 0 0 0-.56.926v-.002c0 .416.187.73.544.912.189.096.371.101 3.804.101 3.431 0 3.613-.005 3.802-.101a.964.964 0 0 0 .545-.867l-.001-.048v.002l.001-.046c0-.38-.22-.709-.54-.865l-.006-.003c-.189-.096-.368-.101-3.814-.098-3.196.002-3.636.011-3.777.086zm-6.551.02c.36.151.609.498.616.903v.001c0 .282-.096.496-.314.703-.598.565-1.578.128-1.578-.703 0-.283.096-.496.314-.704a.924.924 0 0 1 .968-.198l-.006-.002z"/>
</symbol>
<symbol id="icon-rating" viewBox="0 0 32 32">
<path style="fill: var(--color3, #ffc531); stroke: var(--color3, #ffc531)" stroke="#ffc531" stroke-linejoin="miter" stroke-linecap="butt" stroke-miterlimit="4" stroke-width="2.4" d="M12.404 9.397l3.601-6.824 3.601 6.824c0.318 0.604 0.9 1.024 1.571 1.14l7.603 1.316-5.378 5.534c-0.385 0.396-0.623 0.937-0.623 1.534 0 0.11 0.008 0.219 0.024 0.325l-0.001-0.012 1.1 7.639-6.926-3.405c-0.283-0.142-0.617-0.225-0.97-0.225s-0.687 0.083-0.983 0.231l0.013-0.006-6.926 3.405 1.1-7.639c0.014-0.094 0.022-0.202 0.022-0.313 0-0.597-0.237-1.138-0.623-1.534l0.001 0-5.38-5.534 7.603-1.314c0.687-0.122 1.254-0.548 1.567-1.131l0.006-0.012z"></path>
</symbol>
<symbol id="icon-route" viewBox="0 0 32 32">
<path d="M6.667 4c-0.019-0.001-0.042-0.001-0.065-0.001-1.473 0-2.667 1.194-2.667 2.667s1.194 2.667 2.667 2.667c0.023 0 0.046-0 0.069-0.001l-0.003 0c1.445-0.037 2.602-1.216 2.602-2.666s-1.157-2.63-2.598-2.666l-0.003-0zM1.333 6.667c0-2.946 2.388-5.334 5.334-5.334s5.334 2.388 5.334 5.334v0c0 2.946-2.388 5.334-5.334 5.334s-5.334-2.388-5.334-5.334v0zM25.333 22.667c-0.019-0-0.042-0.001-0.065-0.001-1.473 0-2.667 1.194-2.667 2.667s1.194 2.667 2.667 2.667c0.023 0 0.046-0 0.069-0.001l-0.003 0c1.445-0.037 2.602-1.216 2.602-2.666s-1.157-2.63-2.599-2.666l-0.003-0zM20 25.333c0-2.946 2.388-5.334 5.334-5.334s5.334 2.388 5.334 5.334v0c0 2.946-2.388 5.334-5.334 5.334s-5.334-2.388-5.334-5.334v0z"></path>
<path d="M13.333 6.667c0-0.736 0.597-1.334 1.334-1.334h8.4c4.13 0 5.619 5.405 1.987 7.429l-15.472 8.805c-0.407 0.224-0.678 0.65-0.678 1.139 0 0.716 0.58 1.296 1.296 1.296 0.023 0 0.046-0.001 0.069-0.002l-0.003 0h7.066c0.737 0 1.334 0.597 1.334 1.334s-0.597 1.334-1.334 1.334v0h-7.064c-4.131 0-5.619-5.405-1.987-7.429l15.472-8.805c0.407-0.224 0.678-0.65 0.678-1.139 0-0.716-0.58-1.296-1.296-1.296-0.024 0-0.047 0.001-0.070 0.002l0.003-0h-8.4c-0 0-0.001 0-0.002 0-0.736 0-1.333-0.597-1.333-1.333v0z"></path>
</symbol>
<symbol id="icon-toilet" viewBox="0 0 32 32">
<path d="M24 4c1.939 0 3.269 1.648 4.040 3.312 0.762 1.654 1.224 3.811 1.286 6.147l0.006 0.541v12.667c0 0.001 0 0.002 0 0.003 0 0.735-0.596 1.331-1.331 1.331-0.019 0-0.038-0-0.057-0.001l0.003 0-0.166-0.019-3.781-0.629-3.781 0.629c-0.066 0.012-0.142 0.018-0.22 0.018-0.093 0-0.184-0.010-0.272-0.028l0.009 0.002-0.157-0.042-3.579-1.192-3.579 1.192c-0.126 0.043-0.27 0.068-0.421 0.068-0.68 0-1.241-0.509-1.323-1.167l-0.001-0.006-0.010-0.16v-3.902c-0.709 0.734-1.595 1.237-2.667 1.237-1.939 0-3.269-1.648-4.040-3.312-0.819-1.781-1.293-4.147-1.293-6.688s0.472-4.907 1.293-6.688c0.736-1.59 1.981-3.163 3.779-3.301l0.261-0.011h16zM24 6.667h-12.291c0.12 0.213 0.23 0.429 0.33 0.646 0.821 1.779 1.296 4.144 1.296 6.686v10.816l2.245-0.747c0.126-0.043 0.27-0.068 0.421-0.068s0.295 0.025 0.43 0.071l-0.009-0.003 3.688 1.229 3.672-0.613c0.066-0.012 0.142-0.018 0.219-0.018s0.153 0.007 0.227 0.019l-0.008-0.001 2.448 0.408v-11.093c0-2.245-0.424-4.213-1.050-5.568-0.677-1.472-1.347-1.765-1.618-1.765zM8 6.667c-0.272 0-0.941 0.293-1.616 1.763-0.629 1.357-1.051 3.325-1.051 5.57s0.422 4.213 1.050 5.568c0.677 1.472 1.347 1.765 1.618 1.765 0.272 0 0.939-0.293 1.616-1.763 0.627-1.357 1.051-3.325 1.051-5.57s-0.424-4.213-1.050-5.568c-0.678-1.472-1.347-1.766-1.618-1.766zM8 11.333c0.736 0 1.333 1.194 1.333 2.667 0 1.472-0.597 2.667-1.333 2.667s-1.333-1.194-1.333-2.667c0-1.472 0.597-2.667 1.333-2.667z"></path>
</symbol>
<symbol id="icon-transmission" viewBox="0 0 32 32">
<path d="M5.667 2.935c-1.301.341-2.4 1.448-2.735 2.753a4.547 4.547 0 0 0 .006 1.992l-.006-.031A3.882 3.882 0 0 0 5 10.142l.023.01.463.222.018 1.818.018 1.816.2.405c.264.533.671.939 1.203 1.202l.405.2 3.473.054.027 4.402.026 4.404.2.405c.264.533.671.939 1.203 1.203l.405.2 2.431.016c1.664.011 2.493-.002 2.631-.042.451-.133.783-.6.784-1.109a1.142 1.142 0 0 0-.659-1.082l-.007-.003c-.197-.091-.384-.099-2.357-.099-1.879-.002-2.152-.011-2.226-.086-.077-.075-.083-.506-.072-4.146l.014-4.063 2.268-.027c2.479-.029 2.413-.021 2.73-.355.429-.451.408-1.259-.043-1.682-.346-.325-.101-.31-5.35-.31-4.29 0-4.807-.008-4.883-.083-.072-.072-.083-.288-.082-1.56l.002-1.477.466-.222a3.87 3.87 0 0 0 2.087-2.476l.006-.027a4.547 4.547 0 0 0-.006-1.992l.006.031A3.934 3.934 0 0 0 7.677 2.94l-.028-.007a4.719 4.719 0 0 0-2.014.009l.031-.006zm1.531 2.384c.531.189.92.762.92 1.351v.013c0 .787-.638 1.424-1.424 1.424h-.027.001c-1 0-1.679-.935-1.384-1.909.085-.283.419-.672.703-.816.406-.208.754-.226 1.211-.062zm14.966 4.278a1.34 1.34 0 0 0-.357.251c-.318.341-.31.216-.309 4.166.002 3.405.006 3.628.101 3.83.4.867 1.663.899 2.13.053.069-.125.094-.36.115-1.093l.027-.933.773-.032c1.122-.046 1.589-.24 2.295-.951.438-.443.743-.975.848-1.488a4.91 4.91 0 0 0-.005-1.488l.004.027c-.226-1.093-1.291-2.159-2.384-2.384-.163-.034-.861-.058-1.653-.058-1.221.002-1.394.013-1.584.101zm2.916 2.394a.801.801 0 0 1-.001 1.357l-.003.002c-.152.094-.269.114-.693.117l-.511.003-.016-.744a6.666 6.666 0 0 1 .016-.845l-.002.024c.048-.125.976-.058 1.21.086zm-2.916 9.608a1.34 1.34 0 0 0-.357.251c-.315.336-.31.282-.309 3.5.002 2.756.008 2.962.101 3.162.124.263.335.468.596.581l.008.003c.318.133 2.234.117 2.783-.022a3.934 3.934 0 0 0 2.748-2.728l.007-.028c.144-.558.144-1.403 0-1.962a3.93 3.93 0 0 0-2.727-2.748l-.027-.007c-.346-.088-.589-.106-1.509-.104-.955.002-1.127.014-1.312.101zm2.428 2.415c.517.221.864.754.864 1.327 0 .752-.594 1.389-1.344 1.447l-.24.018-.014-1.413a23.29 23.29 0 0 1 .013-1.525l-.002.045c.035-.09.395-.038.723.102z"/>
</symbol>
<symbol id="icon-TV" viewBox="0 0 32 32">
<path d="M9.543 1.241c-.28.189-.422.439-.422.744 0 .144.027.314.059.379s1.093 1.152 2.356 2.419l2.298 2.304-6.554.038-.51.139a4.865 4.865 0 0 0-2.291 1.355l-.002.002a4.808 4.808 0 0 0-1.208 2.116l-.008.034-.141.51v5.681c0 5.34.006 5.706.099 6.102.414 1.767 1.658 3.092 3.421 3.642l.48.15h17.762l.48-.15c1.953-.609 3.263-2.174 3.492-4.171.043-.378.056-2.096.042-5.894-.019-5.339-.02-5.363-.138-5.809-.133-.503-.444-1.202-.707-1.588-.639-.936-1.686-1.673-2.819-1.98l-.51-.139-6.554-.038 2.298-2.304c1.263-1.267 2.324-2.355 2.356-2.419s.059-.235.059-.379v-.003a.862.862 0 0 0-.862-.862h-.003c-.144 0-.314.027-.379.059-.064.032-1.358 1.298-2.876 2.813l-2.76 2.754-2.76-2.754c-1.518-1.515-2.812-2.781-2.876-2.813-.205-.104-.622-.072-.822.062zM24.744 8.99c1.07.252 2.018 1.2 2.27 2.27.122.515.122 11.016.001 11.491-.144.565-.383.978-.821 1.417a2.996 2.996 0 0 1-1.346.824l-.021.005c-.302.094-.722.098-8.825.098s-8.523-.004-8.825-.098c-1.094-.337-1.916-1.182-2.188-2.246-.121-.475-.121-10.976.001-11.491.25-1.064 1.19-2.012 2.245-2.268.485-.117 17.012-.119 17.509-.002zm-13.17 20.231a.966.966 0 0 0-.458.627l-.001.006c-.077.411.254.934.634 1.002.095.017 2.068.024 4.386.016l4.215-.016.179-.128c.201-.143.378-.483.378-.725s-.177-.582-.378-.725l-.179-.128-4.295-.014c-4.102-.014-4.302-.01-4.481.085z"/>
</symbol>
<symbol id="icon-adults" viewBox="0 0 32 32">
<path d="M9.067 24.133h-4.4c-0.267 0-0.4-0.133-0.534-0.266-0.133-0.134-0.266-0.4-0.133-0.667 0.8-2.267 2.8-3.6 5.067-3.6 2.8 0 5.066-2.4 5.066-5.2s-2.266-5.467-5.066-5.467-5.067 2.4-5.067 5.334c0 1.333 0.533 2.666 1.333 3.6-1.733 0.933-3.066 2.4-3.866 4.4-0.081 0.288-0.128 0.62-0.128 0.962 0 0.787 0.247 1.517 0.668 2.116l-0.008-0.012c0.667 0.934 1.6 1.467 2.667 1.467h4.4c0.8 0 1.333-0.533 1.333-1.333s-0.533-1.334-1.333-1.334zM6.667 14.267c0-1.467 1.066-2.534 2.4-2.534 1.333 0 2.4 1.2 2.4 2.534 0 1.466-1.067 2.533-2.4 2.533-1.334 0-2.4-1.2-2.4-2.533z"></path>
<path d="M30.533 21.467c-0.914-2.407-2.658-4.325-4.875-5.441l-0.057-0.026c1.2-1.067 1.867-2.667 1.867-4.533 0-3.467-2.667-6.267-5.867-6.267s-5.867 2.8-5.867 6.267c0 1.733 0.667 3.333 1.867 4.533-2.274 1.142-4.019 3.060-4.91 5.399l-0.023 0.069c-0.667 1.2-0.4 2.533 0.266 3.6 0.667 1.066 1.867 1.6 3.067 1.6h11.067c1.2 0 2.4-0.667 3.066-1.6 0.8-1.067 0.934-2.4 0.4-3.6zM18.267 11.6c0-2 1.466-3.6 3.2-3.6 1.733 0 3.2 1.6 3.2 3.6s-1.467 3.6-3.2 3.6c-1.734 0-3.2-1.733-3.2-3.6zM27.867 23.6c-0.134 0.133-0.4 0.533-0.8 0.533h-11.067c-0.533 0-0.8-0.4-0.8-0.533-0.153-0.192-0.246-0.438-0.246-0.706 0-0.18 0.042-0.35 0.116-0.501l-0.003 0.007c1.066-2.8 3.733-4.667 6.533-4.667s5.467 1.867 6.533 4.667c0.134 0.533-0.133 1.067-0.266 1.2z"></path>
</symbol>
<symbol id="icon-panelTruck" viewBox="0 0 46 32">
<path d="M2.608 1.802h12.409c0 0 0.001 0 0.001 0 0.108 0 0.206-0.043 0.277-0.113l-0 0 1.192-1.161c0.332-0.325 0.788-0.526 1.29-0.526 0.003 0 0.005 0 0.007 0h18.817c0.004-0 0.008-0 0.012-0 0.894 0 1.683 0.446 2.158 1.127l0.006 0.009 2.255 3.301c0.32 0.469 0.35 1.067 0.078 1.563-0.273 0.483-0.783 0.805-1.368 0.805-0.003 0-0.006 0-0.009-0h-9.698v0.957h4.967c0.006-0 0.014-0 0.021-0 1.328 0 2.472 0.789 2.988 1.925l0.008 0.021 2.909 6.649 2.549 0.994c1.36 0.531 2.239 1.798 2.239 3.227v6.158c0 0.919-0.766 1.666-1.707 1.666h-2.965c-0.344 2.038-2.162 3.599-4.35 3.599s-4.007-1.561-4.35-3.6h-16.203c-0.345 2.040-2.165 3.6-4.351 3.6-2.185 0-4.005-1.561-4.35-3.6h-5.92c-0.839 0-1.519-0.663-1.519-1.479v-22.578c0-1.403 1.169-2.544 2.608-2.544zM36.693 30.596c1.637 0 2.969-1.299 2.969-2.897 0-1.597-1.333-2.896-2.969-2.896-1.638 0-2.969 1.299-2.969 2.896 0 1.598 1.331 2.897 2.969 2.897zM30.034 26.996h2.307l0.019-0.104 0.014-0.071c0.011-0.055 0.025-0.11 0.039-0.165l0.009-0.034c0.017-0.065 0.035-0.129 0.057-0.194 0.005-0.018 0.011-0.037 0.018-0.056 0.034-0.102 0.059-0.171 0.086-0.238l-0.011 0.032 0.047-0.114 0.034-0.075 0.049-0.109 0.038-0.075 0.055-0.103 0.040-0.074 0.059-0.101 0.043-0.071 0.066-0.101 0.045-0.065c0.025-0.035 0.050-0.071 0.078-0.105l0.040-0.055c0.089-0.113 0.173-0.212 0.261-0.308l-0.003 0.004 0.042-0.043 0.096-0.099 0.057-0.053c0.075-0.072 0.153-0.142 0.234-0.209l0.007-0.005 0.066-0.051c0.042-0.034 0.094-0.074 0.148-0.113l0.013-0.009 0.097-0.067 0.069-0.046c0.034-0.023 0.069-0.043 0.104-0.065l0.069-0.041c0.038-0.023 0.077-0.043 0.115-0.065l0.059-0.034c0.025-0.015 0.081-0.043 0.137-0.069l0.032-0.014 0.013-0.006c0.062-0.030 0.123-0.057 0.186-0.082 0.019-0.009 0.041-0.016 0.061-0.024l0.13-0.050 0.074-0.026c0.139-0.050 0.314-0.099 0.493-0.138l0.030-0.006 0.087-0.018c0.087-0.018 0.201-0.036 0.317-0.049l0.019-0.002 0.082-0.009 0.143-0.011c0.023 0 0.047-0.003 0.071-0.003 0.065-0.004 0.14-0.006 0.216-0.006s0.151 0.002 0.226 0.006l-0.010-0c0.023 0 0.046 0.002 0.071 0.005 0.047 0.002 0.095 0.006 0.143 0.011 0.027 0.001 0.055 0.006 0.082 0.008 0.164 0.018 0.308 0.042 0.449 0.074l-0.026-0.005c0.208 0.044 0.383 0.093 0.554 0.153l-0.030-0.009 0.074 0.026 0.13 0.050 0.061 0.023c0.063 0.026 0.126 0.054 0.186 0.083l0.013 0.006c0.057 0.027 0.113 0.055 0.168 0.085l0.059 0.033c0.040 0.021 0.079 0.042 0.117 0.065l0.069 0.041 0.103 0.065 0.070 0.046 0.097 0.069c0.064 0.045 0.116 0.085 0.167 0.126l-0.006-0.005 0.066 0.051c0.089 0.075 0.167 0.145 0.244 0.218l-0.003-0.003 0.057 0.053 0.096 0.099 0.042 0.043c0.046 0.048 0.089 0.098 0.131 0.149l0.017 0.021c0.037 0.045 0.073 0.088 0.109 0.135l0.040 0.055 0.078 0.105 0.045 0.065 0.066 0.101 0.043 0.071 0.058 0.101 0.041 0.074 0.055 0.103 0.038 0.075c0.017 0.037 0.034 0.072 0.049 0.109l0.034 0.074c0.020 0.043 0.045 0.105 0.068 0.168l0.006 0.020 0.047 0.134 0.019 0.057c0.019 0.064 0.039 0.128 0.057 0.194l0.008 0.034c0.014 0.054 0.026 0.109 0.038 0.163l0.015 0.071 0.019 0.104h2.963c0.001 0 0.002 0 0.003 0 0.144 0 0.261-0.116 0.263-0.259v-2.946h-1.125v-1.406h1.125v-1.806c0-0.851-0.523-1.606-1.334-1.922l-2.697-1.051h-10.208v9.391zM30.034 16.198h9.257l-2.598-5.939c-0.294-0.648-0.936-1.090-1.68-1.090-0.004 0-0.009 0-0.013 0h-4.966v7.030zM11.789 30.596c1.638 0 2.969-1.299 2.969-2.897 0-1.597-1.331-2.896-2.969-2.896-0.051 0-0.102 0.001-0.152 0.005-1.365 0.067-2.488 1.038-2.757 2.309-0.027 0.126-0.047 0.274-0.056 0.426l-0 0.008c-0.002 0.040-0.003 0.086-0.003 0.133 0 0.005 0 0.011 0 0.016v-0.001c0 1.598 1.331 2.897 2.968 2.897zM1.441 22.384h1.125v1.406h-1.126v3.131c0 0.041 0.034 0.074 0.077 0.074h5.92l0.021-0.103c0.005-0.024 0.008-0.049 0.014-0.073 0.011-0.054 0.023-0.107 0.038-0.16l0.009-0.038c0.017-0.065 0.037-0.129 0.057-0.194l0.019-0.057 0.046-0.133 0.029-0.072c0.041-0.106 0.068-0.169 0.096-0.231l-0.016 0.040 0.049-0.106c0.011-0.026 0.025-0.051 0.039-0.077l0.053-0.103 0.042-0.074c0.081-0.139 0.151-0.249 0.225-0.356l-0.013 0.019 0.077-0.104 0.042-0.057c0.034-0.045 0.069-0.088 0.106-0.131l0.018-0.023c0.043-0.050 0.087-0.101 0.131-0.149l0.043-0.046 0.096-0.097 0.057-0.054 0.088-0.083 0.063-0.054 0.090-0.075 0.066-0.054c0.039-0.032 0.092-0.071 0.144-0.11l0.016-0.011c0.032-0.023 0.064-0.046 0.097-0.066l0.069-0.047 0.103-0.065 0.069-0.041 0.117-0.065 0.061-0.034c0.055-0.029 0.111-0.056 0.167-0.082 0.005-0.002 0.009-0.006 0.015-0.007 0.061-0.030 0.123-0.057 0.185-0.082l0.191-0.074 0.075-0.026c0.012-0.005 0.052-0.019 0.092-0.031l0.028-0.008c0.101-0.033 0.236-0.069 0.374-0.099l0.030-0.005 0.086-0.019c0.087-0.018 0.201-0.036 0.317-0.049l0.019-0.002 0.082-0.009 0.144-0.011c0.023 0 0.046-0.003 0.070-0.003 0.065-0.004 0.14-0.006 0.216-0.006s0.151 0.002 0.226 0.006l-0.010-0c0.024 0 0.047 0.002 0.071 0.005 0.048 0.002 0.096 0.006 0.143 0.011 0.027 0.001 0.055 0.006 0.082 0.008 0.093 0.010 0.166 0.021 0.239 0.033l-0.024-0.003 0.121 0.021 0.087 0.018c0.138 0.029 0.246 0.056 0.352 0.088l-0.031-0.008 0.082 0.025c0.040 0.011 0.080 0.025 0.119 0.039l0.075 0.026 0.13 0.050 0.061 0.023c0.153 0.064 0.274 0.122 0.391 0.186l-0.024-0.012 0.061 0.033 0.117 0.065 0.069 0.041 0.103 0.065 0.070 0.046 0.096 0.069c0.062 0.043 0.114 0.083 0.165 0.124l-0.005-0.004 0.067 0.054c0.031 0.024 0.061 0.050 0.090 0.075l0.062 0.054 0.146 0.137 0.096 0.098 0.042 0.046c0.085 0.092 0.169 0.191 0.249 0.293l0.008 0.010 0.041 0.055c0.026 0.034 0.053 0.070 0.077 0.105l0.045 0.066c0.051 0.073 0.107 0.161 0.159 0.252l0.010 0.019 0.041 0.074 0.054 0.103 0.038 0.075 0.050 0.109 0.033 0.074c0.017 0.039 0.032 0.078 0.047 0.117l0.027 0.071c0.017 0.045 0.032 0.089 0.047 0.135l0.019 0.055c0.021 0.064 0.039 0.13 0.057 0.194l0.007 0.032c0.015 0.055 0.027 0.111 0.040 0.167l0.013 0.069 0.022 0.106h12.453v-20.891c0-0.389 0.322-0.704 0.72-0.704h10.419c0.017 0 0.072 0 0.106-0.063 0.010-0.016 0.016-0.035 0.016-0.055 0-0.025-0.008-0.047-0.023-0.065l0 0-2.254-3.299c-0.216-0.31-0.571-0.511-0.972-0.511-0.002 0-0.003 0-0.005 0h-18.817c-0 0-0.001 0-0.001 0-0.108 0-0.206 0.043-0.277 0.113l0-0-1.192 1.162c-0.332 0.324-0.787 0.525-1.289 0.525-0.003 0-0.006 0-0.009-0h-12.408c-0.004-0-0.008-0-0.013-0-0.632 0-1.145 0.508-1.154 1.137v18.040z"></path>
<path d="M5.536 7.199h8.814c1.019 0 1.848 0.809 1.848 1.802v4.101c0 0.994-0.83 1.802-1.848 1.802h-8.815c-1.018 0-1.847-0.808-1.847-1.802v-4.101c0-0.994 0.829-1.802 1.848-1.802zM5.129 13.102c0 0.217 0.183 0.397 0.407 0.397h8.814c0.001 0 0.003 0 0.005 0 0.22 0 0.399-0.177 0.402-0.396v-4.101c0-0.218-0.183-0.397-0.407-0.397h-8.815c-0.001 0-0.002 0-0.003 0-0.22 0-0.399 0.177-0.402 0.396v4.101z"></path>
</symbol>
<symbol id="icon-water" viewBox="0 0 32 32">
<path d="M15.595 2.346a2.269 2.269 0 0 0-.903.467l.003-.003a21.94 21.94 0 0 0-.885 1.031c-2.493 3.028-4.524 6.076-5.934 8.909-1.043 2.096-1.591 3.658-1.936 5.521-.078.429-.098.792-.096 1.866.002 1.469.072 2.034.394 3.183.986 3.509 3.588 5.897 7.224 6.632.93.187 1.483.24 2.541.24.514 0 1.149-.024 1.413-.054 4.966-.565 8.184-3.81 8.728-8.802.078-.723.034-2.432-.082-3.065-.33-1.82-.896-3.436-1.933-5.521-1.413-2.841-3.442-5.884-5.94-8.915a16.96 16.96 0 0 0-.95-1.089l.007.007c-.405-.341-1.125-.517-1.652-.406zm.827 3.105c3.18 3.903 5.667 7.998 6.713 11.06.413 1.205.595 2.133.64 3.234.078 1.973-.408 3.82-1.355 5.153a7.23 7.23 0 0 1-2.169 1.931l-.035.018c-1.74.96-4.522 1.229-6.747.651-1.868-.486-3.349-1.594-4.246-3.175-.831-1.464-1.181-3.532-.928-5.462.344-2.625 1.991-6.097 4.798-10.112.903-1.293 2.818-3.782 2.909-3.78.014 0 .203.218.419.482zm4.544 14.004c-.437.229-.59.479-.655 1.064-.086.779-.146 1.016-.373 1.469a2.98 2.98 0 0 1-.595.815l-.001.001c-.626.632-1.215.901-2.16.991-.674.064-.944.195-1.181.568a1.13 1.13 0 0 0 .098 1.408l-.001-.001c.267.31.533.419 1.031.421 2.922.008 5.507-2.548 5.556-5.494.008-.424-.01-.541-.104-.72a1.176 1.176 0 0 0-.998-.651h-.003a.854.854 0 0 0-.619.132l.003-.002z"/>
</symbol>
<symbol id="icon-cross" viewBox="0 0 32 32">
<path d="M7.469 6.6c-0.329 0.116-0.757 0.554-0.872 0.891-0.054 0.153-0.086 0.33-0.086 0.514 0 0.181 0.030 0.355 0.086 0.517l-0.003-0.011c0.079 0.239 0.415 0.592 3.693 3.877l3.606 3.613-3.606 3.613c-3.278 3.285-3.614 3.638-3.693 3.877-0.191 0.581-0.064 1.126 0.364 1.553 0.427 0.428 0.972 0.555 1.553 0.364 0.239-0.079 0.592-0.415 3.877-3.693l3.613-3.606 3.613 3.606c3.285 3.278 3.638 3.614 3.877 3.693 0.581 0.191 1.126 0.064 1.553-0.364 0.428-0.427 0.555-0.972 0.364-1.553-0.079-0.239-0.415-0.592-3.693-3.877l-3.606-3.613 3.606-3.613c3.278-3.285 3.614-3.638 3.693-3.877 0.191-0.581 0.064-1.126-0.364-1.553-0.427-0.428-0.972-0.555-1.553-0.364-0.239 0.079-0.592 0.415-3.877 3.693l-3.613 3.606-3.613-3.606c-3.285-3.278-3.638-3.614-3.877-3.693-0.153-0.050-0.329-0.079-0.512-0.079-0.19 0-0.372 0.031-0.542 0.088l0.012-0.003z"></path>
</symbol>
<symbol id="icon-star" viewBox="0 0 32 32">
<path fill="#f2f4f7" style="fill: var(--color1, #f2f4f7); stroke: var(--color1, #f2f4f7)" stroke="#f2f4f7" stroke-linejoin="miter" stroke-linecap="butt" stroke-miterlimit="4" stroke-width="2.4" d="M12.4 9.394l3.6-6.822 3.6 6.822c0.318 0.603 0.899 1.025 1.571 1.141l7.601 1.315-5.376 5.532c-0.475 0.489-0.697 1.171-0.6 1.846l1.098 7.635-6.922-3.404c-0.612-0.301-1.329-0.301-1.941 0l-6.922 3.404 1.098-7.635c0.097-0.675-0.125-1.357-0.6-1.846l-5.376-5.532 7.601-1.315c0.672-0.116 1.252-0.538 1.571-1.141zM29.035 11.579v0zM7.767 27.031c0 0 0 0 0 0h-0z"></path>
</symbol>
</defs>
</svg>
